<?xml version="1.0" standalone="no"?>
<!DOCTYPE svg PUBLIC "-//W3C//DTD SVG 20010904//EN"
 "http://www.w3.org/TR/2001/REC-SVG-20010904/DTD/svg10.dtd">
<svg version="1.0" xmlns="http://www.w3.org/2000/svg"
 width="580.000000pt" height="580.000000pt" viewBox="0 0 580.000000 580.000000"
 preserveAspectRatio="xMidYMid meet">
<metadata>
Created by potrace 1.14, written by Peter Selinger 2001-2017
</metadata>
<g transform="translate(0.000000,580.000000) scale(0.100000,-0.100000)"
fill="#000000" stroke="none">
<path d="M0 2900 l0 -2900 2900 0 2900 0 0 2900 0 2900 -2900 0 -2900 0 0
-2900z m2351 2817 c-1 -12 -15 -9 -19 4 -3 6 1 10 8 8 6 -3 11 -8 11 -12z
m3367 -28 c-16 -10 -33 5 -23 21 5 8 11 8 21 -1 12 -10 12 -14 2 -20z m-1288
11 c0 -5 -2 -10 -4 -10 -3 0 -8 5 -11 10 -3 6 -1 10 4 10 6 0 11 -4 11 -10z
m-3528 -32 c-15 -15 -26 -4 -18 18 5 13 9 15 18 6 9 -9 9 -15 0 -24z m350 -50
c-16 -16 -37 4 -28 28 6 16 8 16 23 1 13 -13 15 -19 5 -29z m3860 10 c-9 -9
-15 -9 -24 0 -9 9 -7 12 12 12 19 0 21 -3 12 -12z m468 -103 c0 -19 -20 -29
-32 -17 -8 8 -7 16 2 26 14 17 30 12 30 -9z m-4230 5 c13 -9 13 -12 -4 -25
-23 -18 -62 1 -44 22 13 15 28 16 48 3z m1990 -80 c0 -5 -4 -10 -10 -10 -5 0
-10 5 -10 10 0 6 5 10 10 10 6 0 10 -4 10 -10z m-2282 -31 c-16 -10 -33 5 -23
21 5 8 11 8 21 -1 12 -10 12 -14 2 -20z m-658 -129 c0 -5 -2 -10 -4 -10 -3 0
-8 5 -11 10 -3 6 -1 10 4 10 6 0 11 -4 11 -10z m1080 0 c0 -5 -4 -10 -10 -10
-5 0 -10 5 -10 10 0 6 5 10 10 10 6 0 10 -4 10 -10z m-190 -80 c0 -5 -4 -10
-10 -10 -5 0 -10 5 -10 10 0 6 5 10 10 10 6 0 10 -4 10 -10z m-710 -70 c0 -5
-2 -10 -4 -10 -3 0 -8 5 -11 10 -3 6 -1 10 4 10 6 0 11 -4 11 -10z m3923 -102
l32 -1 -32 -4 c-27 -4 -34 -10 -42 -36 -9 -30 -9 -31 -10 -6 -1 27 -15 38 -54
40 -13 1 -7 4 13 8 30 5 36 11 39 36 l4 30 9 -32 c7 -28 13 -33 41 -35z
m-1818 -8 c3 -5 -1 -10 -9 -10 -9 0 -16 5 -16 10 0 6 4 10 9 10 6 0 13 -4 16
-10z m-2000 -70 c0 -22 -29 -18 -33 3 -3 14 1 18 15 15 10 -2 18 -10 18 -18z
m1385 16 c0 -3 -4 -8 -10 -11 -5 -3 -10 -1 -10 4 0 6 5 11 10 11 6 0 10 -2 10
-4z m733 -37 c-8 -8 -16 -8 -30 0 -16 9 -14 10 12 11 21 0 26 -3 18 -11z
m-843 -39 c0 -5 -4 -10 -10 -10 -5 0 -10 5 -10 10 0 6 5 10 10 10 6 0 10 -4
10 -10z m2740 -230 c0 -5 -7 -10 -16 -10 -8 0 -12 5 -9 10 3 6 10 10 16 10 5
0 9 -4 9 -10z m60 -10 c0 -5 -4 -10 -10 -10 -5 0 -10 5 -10 10 0 6 5 10 10 10
6 0 10 -4 10 -10z m-3986 -111 c-3 -5 -10 -7 -15 -3 -5 3 -7 10 -3 15 3 5 10
7 15 3 5 -3 7 -10 3 -15z m3713 -45 c-9 -9 -28 6 -21 18 4 6 10 6 17 -1 6 -6
8 -13 4 -17z m608 -24 c-3 -5 -10 -10 -16 -10 -5 0 -9 5 -9 10 0 6 7 10 16 10
8 0 12 -4 9 -10z m-4790 -60 c3 -5 -1 -10 -10 -10 -9 0 -13 5 -10 10 3 6 8 10
10 10 2 0 7 -4 10 -10z m225 -85 c0 -8 -7 -15 -15 -15 -16 0 -20 12 -8 23 11
12 23 8 23 -8z m3074 -81 c3 -9 6 -78 6 -155 0 -127 -2 -141 -20 -156 -14 -12
-20 -30 -20 -58 0 -34 -6 -45 -35 -69 -20 -17 -35 -39 -35 -51 0 -28 -157
-185 -185 -185 -11 0 -36 -18 -55 -40 -30 -34 -41 -40 -77 -40 -26 0 -45 -5
-50 -14 -4 -8 -21 -16 -38 -18 l-30 -3 0 -110 c0 -110 0 -110 25 -113 14 -2
40 -19 57 -38 20 -21 43 -34 58 -34 14 0 29 -8 35 -20 6 -11 21 -20 34 -20 17
0 83 -60 244 -221 l221 -221 66 66 c65 64 66 68 50 86 -23 25 -23 195 0 220 8
9 15 24 15 34 0 9 20 37 44 61 41 43 47 45 99 45 45 0 61 -5 81 -24 15 -13 26
-32 26 -43 0 -11 9 -28 20 -38 11 -10 20 -28 20 -40 0 -13 7 -28 15 -35 13
-11 15 -41 13 -184 l-3 -171 -28 -3 c-15 -2 -32 -12 -37 -23 -7 -12 -21 -19
-39 -19 -16 0 -31 -7 -35 -15 -3 -10 -19 -15 -47 -15 -38 0 -47 -6 -130 -90
-85 -86 -91 -90 -133 -90 -30 0 -46 5 -50 15 -3 8 -18 15 -33 15 -17 0 -33 8
-41 20 -9 15 -23 20 -55 20 -30 0 -48 6 -60 20 -9 11 -26 20 -38 20 -12 0 -27
7 -34 17 -29 40 -35 3 -35 -221 0 -210 -1 -224 -20 -241 -14 -12 -20 -31 -20
-59 0 -30 -5 -44 -20 -54 -11 -7 -20 -23 -20 -36 0 -13 -7 -29 -15 -36 -9 -8
-15 -29 -15 -56 0 -33 -5 -46 -20 -54 -11 -6 -20 -21 -20 -34 0 -13 -9 -31
-20 -41 -11 -10 -20 -28 -20 -40 0 -12 -15 -34 -35 -51 -29 -24 -35 -35 -35
-69 0 -36 7 -48 55 -97 30 -31 55 -64 55 -75 0 -10 34 -52 75 -92 44 -43 75
-83 75 -94 0 -12 24 -43 55 -72 54 -51 55 -54 55 -108 0 -45 -4 -58 -19 -66
-16 -9 -19 -23 -20 -88 -1 -62 -5 -81 -21 -98 -13 -14 -20 -35 -20 -62 0 -27
-5 -43 -15 -47 -8 -3 -15 -16 -15 -29 0 -13 -9 -32 -20 -42 -16 -15 -20 -29
-18 -64 l3 -46 111 -3 c86 -2 112 0 110 10 0 7 4 13 9 13 6 0 9 -6 9 -12 -3
-20 85 -17 92 2 8 19 60 20 67 0 4 -10 26 -15 74 -17 l68 -3 3 -45 c2 -25 10
-53 19 -62 15 -16 13 -21 -24 -58 -23 -22 -47 -40 -55 -40 -9 0 -27 -9 -41
-20 -24 -19 -40 -20 -426 -20 l-400 0 -25 24 c-33 30 -36 93 -6 119 11 9 20
28 20 41 0 13 7 26 15 30 8 3 15 16 15 29 0 13 9 32 20 42 14 12 20 31 20 59
0 30 5 44 20 54 11 7 20 23 20 36 0 13 7 29 15 36 10 8 15 31 15 71 0 47 4 63
20 76 17 15 20 30 20 95 0 67 -3 80 -20 90 -11 7 -20 22 -20 33 0 12 -16 36
-35 55 -19 19 -35 44 -35 56 0 11 -9 29 -20 39 -11 10 -20 27 -20 38 0 24
-126 151 -140 142 -6 -4 -10 -57 -10 -124 0 -93 3 -121 15 -131 10 -9 15 -32
15 -76 0 -60 -1 -64 -23 -64 -13 0 -32 -9 -42 -20 -10 -11 -29 -20 -42 -20
-13 0 -26 -7 -29 -15 -8 -19 -30 -19 -38 0 -4 13 -34 15 -181 15 -153 0 -176
-2 -182 -16 -4 -10 0 -20 10 -26 12 -6 17 -22 17 -49 0 -46 39 -95 81 -101 17
-2 25 -10 27 -28 2 -13 19 -39 38 -57 29 -27 34 -38 34 -76 0 -31 -5 -47 -15
-51 -9 -3 -15 -18 -15 -35 0 -31 -14 -41 -61 -41 -18 0 -33 7 -41 20 -7 11
-23 20 -36 20 -29 0 -182 151 -182 180 0 10 -18 36 -40 56 -24 22 -40 46 -40
59 0 13 -7 28 -15 35 -8 7 -15 23 -15 36 0 13 -9 28 -20 34 -15 8 -20 21 -20
54 0 30 -6 48 -20 61 -17 15 -20 31 -20 104 0 79 2 87 27 113 25 26 32 28 104
28 58 0 80 -4 86 -15 7 -11 34 -15 126 -16 105 -1 118 -3 128 -21 8 -16 19
-18 62 -16 l52 3 3 138 c2 126 1 140 -18 164 -11 14 -20 31 -20 38 0 7 -7 18
-15 25 -10 8 -15 31 -15 70 0 44 -4 61 -20 75 -15 14 -20 31 -20 74 0 44 4 60
20 74 16 13 20 29 20 77 0 45 4 62 15 66 8 4 15 19 15 35 0 18 7 32 20 39 11
6 20 21 20 34 0 13 9 31 20 41 14 13 20 31 20 60 0 29 5 45 15 49 10 4 15 20
15 50 0 35 5 48 20 56 12 7 20 21 20 38 0 16 8 32 20 40 16 10 20 23 20 73 0
41 5 66 14 73 11 8 15 51 18 186 l3 174 -27 10 c-23 8 -32 6 -51 -12 -18 -17
-35 -22 -79 -22 -42 0 -59 -5 -73 -20 -10 -11 -29 -20 -42 -20 -13 0 -26 -7
-29 -15 -4 -10 -20 -15 -50 -15 -33 0 -47 -5 -56 -20 -8 -12 -24 -20 -40 -20
-17 0 -31 -8 -38 -20 -8 -15 -21 -20 -56 -20 -30 0 -46 -5 -50 -15 -4 -8 -17
-15 -29 -15 -41 0 -58 -27 -53 -87 4 -45 2 -56 -14 -64 -15 -8 -18 -22 -18
-74 0 -54 -3 -66 -20 -75 -17 -9 -20 -21 -20 -76 0 -48 -4 -66 -15 -70 -8 -4
-15 -11 -15 -18 0 -20 84 -94 110 -98 24 -3 25 -7 30 -78 3 -41 4 -87 2 -102
-3 -26 -7 -28 -46 -28 -23 0 -47 -5 -54 -12 -7 -7 -12 -39 -12 -75 0 -43 -4
-63 -12 -64 -7 -1 -44 0 -83 1 -57 2 -72 6 -84 22 -11 16 -21 19 -52 14 -32
-5 -40 -3 -49 14 -6 12 -21 20 -35 20 -13 0 -36 11 -50 25 -14 14 -25 37 -25
50 0 14 -8 29 -20 35 -28 15 -28 90 0 108 15 9 20 23 20 57 l0 45 43 0 c48 0
67 13 67 46 0 12 7 27 15 34 9 7 15 29 15 51 0 27 6 45 20 56 16 14 20 30 20
78 0 49 4 62 20 73 17 10 20 23 20 76 0 48 4 65 15 70 11 4 15 21 15 65 l0 60
102 100 c59 58 110 101 121 101 11 0 34 16 53 35 18 19 41 35 52 35 10 0 36
18 58 40 22 23 49 40 62 40 12 0 25 7 28 15 4 10 20 15 49 15 29 0 47 6 60 20
13 14 31 20 61 20 33 0 46 5 54 20 9 18 21 20 95 20 l85 0 0 63 c0 52 4 67 20
82 13 12 20 29 18 44 -3 22 -9 26 -38 29 -63 5 -78 12 -100 47 -15 24 -29 35
-45 35 -29 0 -185 155 -185 184 0 11 -7 27 -15 36 -15 16 -12 20 29 44 24 14
50 26 56 26 7 0 24 6 38 14 15 8 50 24 77 36 28 12 68 30 90 40 90 40 117 50
133 50 10 0 34 9 55 20 20 11 44 20 53 20 9 0 28 6 42 14 36 18 129 53 166 62
16 4 41 13 55 20 14 8 32 14 39 14 6 0 29 9 49 20 21 11 42 20 48 20 6 0 28 9
50 20 22 11 51 20 65 20 14 0 34 7 44 15 27 20 82 19 90 -1z m1756 -15 c0 -24
-23 -21 -28 4 -2 10 3 17 12 17 10 0 16 -9 16 -21z m-4310 -59 c0 -5 -4 -10
-10 -10 -5 0 -10 5 -10 10 0 6 5 10 10 10 6 0 10 -4 10 -10z m4520 -20 c24
-24 26 -40 5 -40 -8 0 -15 9 -15 20 0 11 -4 20 -10 20 -5 0 -10 5 -10 10 0 15
8 12 30 -10z m-1440 -50 c0 -5 -7 -10 -16 -10 -8 0 -12 5 -9 10 3 6 10 10 16
10 5 0 9 -4 9 -10z m-2542 -112 c-6 -18 -28 -21 -28 -4 0 9 7 16 16 16 9 0 14
-5 12 -12z m522 -58 c0 -5 -4 -10 -10 -10 -5 0 -10 5 -10 10 0 6 5 10 10 10 6
0 10 -4 10 -10z m1560 -30 c0 -5 -5 -12 -11 -16 -14 -8 -33 11 -25 25 7 11 36
4 36 -9z m-3030 -10 c0 -5 -4 -10 -10 -10 -5 0 -10 5 -10 10 0 6 5 10 10 10 6
0 10 -4 10 -10z m3928 -7 c-30 -5 -31 -6 -22 -40 5 -17 14 -23 35 -23 38 0 37
-16 -1 -23 -21 -5 -31 -14 -36 -32 -7 -28 -24 -24 -24 5 0 13 -10 22 -32 28
-32 9 -31 11 14 25 9 3 19 19 23 36 6 27 11 31 38 30 31 -2 31 -2 5 -6z
m-4493 -33 c-5 -8 -11 -8 -17 -2 -6 6 -7 16 -3 22 5 8 11 8 17 2 6 -6 7 -16 3
-22z m4860 -50 c3 -5 1 -10 -4 -10 -6 0 -11 5 -11 10 0 6 2 10 4 10 3 0 8 -4
11 -10z m-2445 -330 c0 -5 -4 -10 -10 -10 -5 0 -10 5 -10 10 0 6 5 10 10 10 6
0 10 -4 10 -10z m2858 -71 c-2 -6 -8 -10 -13 -10 -5 0 -11 4 -13 10 -2 6 4 11
13 11 9 0 15 -5 13 -11z m-4028 -29 c0 -5 -7 -10 -15 -10 -8 0 -15 5 -15 10 0
6 7 10 15 10 8 0 15 -4 15 -10z m3700 -43 c0 -8 -3 -17 -7 -20 -9 -9 -34 13
-27 24 8 14 34 11 34 -4z m-725 -177 c3 -5 1 -10 -4 -10 -6 0 -11 5 -11 10 0
6 2 10 4 10 3 0 8 -4 11 -10z m-57 -51 c-2 -6 -8 -10 -13 -10 -5 0 -11 4 -13
10 -2 6 4 11 13 11 9 0 15 -5 13 -11z m-3428 -239 c0 -5 -4 -10 -10 -10 -5 0
-10 5 -10 10 0 6 5 10 10 10 6 0 10 -4 10 -10z m-566 -22 c8 -14 7 -21 -6 -34
-30 -30 -75 9 -48 42 16 18 39 15 54 -8z m-102 -60 c-9 -9 -12 -4 -11 23 0 32
1 33 11 11 8 -17 8 -26 0 -34z m608 -8 c0 -5 -4 -10 -10 -10 -5 0 -10 5 -10
10 0 6 5 10 10 10 6 0 10 -4 10 -10z m25 -90 c-3 -5 -10 -10 -16 -10 -5 0 -9
5 -9 10 0 6 7 10 16 10 8 0 12 -4 9 -10z m109 -161 c-3 -5 -10 -7 -15 -3 -5 3
-7 10 -3 15 3 5 10 7 15 3 5 -3 7 -10 3 -15z m1266 -164 c0 -8 -7 -15 -15 -15
-8 0 -15 7 -15 15 0 8 7 15 15 15 8 0 15 -7 15 -15z m1520 -25 c0 -5 -4 -10
-10 -10 -5 0 -10 5 -10 10 0 6 5 10 10 10 6 0 10 -4 10 -10z m1195 0 c3 -5 1
-10 -4 -10 -6 0 -11 5 -11 10 0 6 2 10 4 10 3 0 8 -4 11 -10z m-261 -9 c3 -5
0 -11 -8 -14 -15 -6 -26 1 -26 15 0 11 27 10 34 -1z m586 -25 c0 -11 -19 -15
-25 -6 -3 5 1 10 9 10 9 0 16 -2 16 -4z m-5049 -19 c-1 -12 -15 -9 -19 4 -3 6
1 10 8 8 6 -3 11 -8 11 -12z m-57 -68 c-3 -5 -10 -7 -15 -3 -5 3 -7 10 -3 15
3 5 10 7 15 3 5 -3 7 -10 3 -15z m346 -19 c0 -5 -4 -10 -10 -10 -5 0 -10 5
-10 10 0 6 5 10 10 10 6 0 10 -4 10 -10z m572 -45 c0 -5 -5 -11 -11 -13 -6 -2
-11 4 -11 13 0 9 5 15 11 13 6 -2 11 -8 11 -13z m4408 -13 c0 -13 -12 -22 -22
-16 -10 6 -1 24 13 24 5 0 9 -4 9 -8z m-4720 -12 c0 -5 -4 -10 -10 -10 -5 0
-10 5 -10 10 0 6 5 10 10 10 6 0 10 -4 10 -10z m3838 -59 c-10 -17 -12 -17
-27 -2 -15 14 -15 17 -1 28 22 17 43 -3 28 -26z m-3408 -31 c0 -5 -7 -10 -15
-10 -8 0 -15 5 -15 10 0 6 7 10 15 10 8 0 15 -4 15 -10z m4045 -90 c-3 -5 -10
-10 -16 -10 -5 0 -9 5 -9 10 0 6 7 10 16 10 8 0 12 -4 9 -10z m-3605 -50 c0
-5 -5 -10 -11 -10 -5 0 -7 5 -4 10 3 6 8 10 11 10 2 0 4 -4 4 -10z m-430 -60
c0 -29 10 -39 42 -43 19 -3 21 -20 2 -23 -35 -5 -44 -14 -44 -44 0 -41 -16
-38 -24 4 -5 28 -12 35 -39 40 -25 5 -29 9 -17 16 8 5 23 10 33 10 10 0 17 8
17 19 0 26 10 51 21 51 5 0 9 -14 9 -30z m2997 -20 c-1 -11 -4 -20 -8 -20 -10
0 -20 30 -13 41 9 15 23 1 21 -21z m-1717 10 c0 -5 -4 -10 -10 -10 -5 0 -10 5
-10 10 0 6 5 10 10 10 6 0 10 -4 10 -10z m1186 -201 c10 -17 -13 -36 -27 -22
-12 12 -4 33 11 33 5 0 12 -5 16 -11z m2174 -39 c0 -5 -5 -10 -11 -10 -5 0 -7
5 -4 10 3 6 8 10 11 10 2 0 4 -4 4 -10z m-1166 -22 c8 -14 7 -21 -6 -34 -30
-30 -75 9 -48 42 16 18 39 15 54 -8z m1059 -365 c9 -9 -13 -34 -24 -27 -14 8
-11 34 4 34 8 0 17 -3 20 -7z m-5577 -62 c-9 -14 -33 -14 -41 -1 -4 6 -1 18 6
26 11 13 14 13 27 0 8 -8 11 -19 8 -25z m5214 19 c0 -5 -5 -10 -11 -10 -5 0
-7 5 -4 10 3 6 8 10 11 10 2 0 4 -4 4 -10z m-802 -21 c-2 -6 -8 -10 -13 -10
-5 0 -11 4 -13 10 -2 6 4 11 13 11 9 0 15 -5 13 -11z m-158 -39 c0 -5 -4 -10
-10 -10 -5 0 -10 5 -10 10 0 6 5 10 10 10 6 0 10 -4 10 -10z m32 -104 c11 -5
11 -7 0 -12 -8 -3 -22 -20 -32 -37 l-19 -30 -6 26 c-4 14 -16 29 -26 32 -24 8
-24 22 0 35 11 5 23 19 26 31 7 20 8 19 25 -9 10 -16 24 -33 32 -36z m-4259
-27 c18 18 28 12 17 -9 -8 -15 -7 -26 7 -47 l17 -28 -22 19 c-13 11 -30 16
-42 13 -16 -4 -20 -2 -16 9 3 8 -2 27 -12 42 l-17 27 29 -18 c20 -14 31 -16
39 -8z m3753 10 c9 -16 -10 -31 -30 -23 -13 5 -14 9 -5 20 14 17 25 18 35 3z
m1164 -9 c0 -5 -4 -10 -10 -10 -5 0 -10 5 -10 10 0 6 5 10 10 10 6 0 10 -4 10
-10z m120 -126 c0 -8 -5 -12 -10 -9 -6 4 -8 11 -5 16 9 14 15 11 15 -7z
m-4268 -58 c18 -5 20 -8 9 -15 -8 -5 -20 -7 -26 -5 -7 3 -15 -7 -18 -25 -8
-38 -25 -40 -29 -3 -2 19 -9 28 -25 30 -29 4 -30 22 -3 22 11 0 23 7 25 15 16
50 17 51 31 19 7 -18 23 -34 36 -38z m355 -252 c-9 -9 -28 6 -21 18 4 6 10 6
17 -1 6 -6 8 -13 4 -17z m-557 -24 c0 -5 -7 -10 -15 -10 -8 0 -15 5 -15 10 0
6 7 10 15 10 8 0 15 -4 15 -10z m590 0 c0 -5 -7 -10 -15 -10 -8 0 -15 5 -15
10 0 6 7 10 15 10 8 0 15 -4 15 -10z m1011 -139 c-7 -5 -22 -6 -33 -4 -18 5
-18 7 -2 25 16 17 19 17 33 3 13 -13 14 -17 2 -24z m3509 -41 c0 -11 -4 -20
-10 -20 -5 0 -10 9 -10 20 0 11 5 20 10 20 6 0 10 -9 10 -20z m-720 -146 c0
-14 -12 -19 -23 -8 -9 9 4 35 14 28 5 -3 9 -12 9 -20z"/>
</g>
</svg>
