<?xml version="1.0" standalone="no"?>
<!DOCTYPE svg PUBLIC "-//W3C//DTD SVG 20010904//EN"
 "http://www.w3.org/TR/2001/REC-SVG-20010904/DTD/svg10.dtd">
<svg version="1.0" xmlns="http://www.w3.org/2000/svg"
 width="1280.000000pt" height="823.000000pt" viewBox="0 0 1280.000000 823.000000"
 preserveAspectRatio="xMidYMid meet">
<g transform="translate(0.000000,823.000000) scale(0.100000,-0.100000)"
fill="#000000" stroke="none">
<path d="M12415 8216 c-187 -43 -606 -262 -945 -494 -495 -338 -899 -701
-1669 -1500 -355 -368 -490 -473 -697 -541 -151 -51 -220 -48 -504 16 -692
158 -1299 244 -2095 295 -250 16 -1103 16 -1360 0 -875 -55 -1595 -163 -2375
-357 -921 -229 -1508 -483 -1961 -847 -556 -447 -866 -1089 -800 -1658 69
-587 501 -1264 1133 -1774 1088 -877 2844 -1389 4638 -1353 1085 22 2120 227
3075 607 1206 480 1975 1143 2360 2032 54 126 128 328 122 334 -2 2 -37 -38
-77 -89 -93 -115 -326 -350 -447 -449 -576 -476 -1333 -830 -2358 -1102 -2034
-541 -4266 -480 -6268 171 -671 218 -1117 421 -1423 648 -113 85 -289 265
-362 372 -34 50 -62 94 -62 98 0 3 44 -34 98 -84 652 -604 1637 -1021 2993
-1266 725 -130 1366 -186 2134 -186 603 0 1053 28 1600 102 1440 193 2603 598
3445 1199 454 324 694 634 772 995 19 91 16 333 -5 433 -56 258 -190 515 -379
732 -300 343 -755 602 -1513 860 -264 91 -267 92 -180 84 234 -19 494 -100
742 -229 l122 -63 22 66 c11 37 47 121 79 187 100 206 231 385 425 580 204
204 381 347 855 685 525 375 742 557 944 791 223 260 324 447 302 564 -9 44
-57 100 -110 127 -52 27 -186 33 -271 14z m110 -296 c8 -26 -8 -54 -50 -85
-64 -50 -216 -73 -360 -55 -115 14 -129 22 -73 43 120 44 391 114 455 116 13
1 24 -7 28 -19z m-2018 -1623 c-70 -119 -216 -197 -367 -197 -72 0 -161 22
-179 44 -22 26 16 40 132 47 70 5 134 15 170 28 69 24 233 109 250 129 23 28
19 -8 -6 -51z" fill="#ddd"/>
</g>
</svg>
