<?xml version="1.0" encoding="utf-8"?>
<svg width="200" height="320" viewBox="0 0 480 600" xmlns="http://www.w3.org/2000/svg" xmlns:bx="https://boxy-svg.com">
  <defs>
    <path id="a" d="M341.13271 494.16799c54.28571 3.78448 45.29587 98.30151 45.29587 98.30151-6.18443 30.50858-5.25352 47.87279-20.00001 40.6832 0 0-2.85714-79.94723-8.57143-92.71987m-69.55184-45.12277c-26.47783-5.97931-46.19469 105.05165-24.82668 126.71299"/>
    <path id="b" d="M273.9119 529.0587c-7.30085 21.21146-20.13135 56.62106-11.89814 84.01122 8.64683 28.76618 15.92389 143.46466 15.92389 143.46466 1.08355 5.81296-27.19188 30.6601 19.70413 22.10105l15.66352-10.01135c9.0336-36.42021-.11554-57.37063-.17331-113.1508 7.61925 46.396 7.69439 68.92303 15.15228 109.48109 0 0 24.38672 16.43732 37.19785 16.82901 10.97435.33553-2.3665-18.18816-3.46181-23.53879-9.85642-48.14893-9.78464-123.6729 3.5058-141.04743m-52.26288-118.81938c-43.15888 9.42984-54.79547-63.11864-9.39594-65.96528 33.94966 2.09204 42.31618 2.65633 43.03046 61.78891"/>
    <path id="c" d="M291.439 479.63206c43.41658-.85151 43.41658-4.01428 43.41658-4.01428m-23.7286-18.39763c9.13844-4.10758 11.41396.73743 10.10152 3.34505m-16.16243-4.68306c-6.74767-.45483-15.2822-.0861-10.10152 6.69008m18.18274 194.68152-3.03046-24.75332"/>
    <path id="d" fill-opacity=".99719902" stroke-linecap="round" d="M358.89776 779.06176c-8.88299-2.78039-29.03776-13.93253-29.74573-16.45908-1.07735-3.84467-4.96775-31.25115-7.94678-55.98217-3.85734-32.02244-9.96287-73.11353-11.00352-74.05521-.46474-.42055-.38395 3.73537.17953 9.23537 1.35211 13.19767 3.37661 49.46117 4.55289 81.55286.65907 17.9809.41972 28.6335-.78706 35.02918-1.70562 9.03942-1.87077 9.27909-10.03809 14.56732-7.39629 4.789-9.40998 5.41014-18.42295 5.68268-7.71678.23335-10.66748-.2425-12.42939-2.0044-2.12813-2.12814-2.01928-2.88487 1.37997-9.59295 4.38501-8.6534 4.46722-11.24785 1.52424-48.10605-3.57431-44.76511-7.74222-80.36468-11.62245-99.2715-5.7875-28.20016-3.43175-51.46893 8.64161-85.35714 1.18969-3.33929 1.60152-6.07143.91519-6.07143-1.41181 0-6.9312 16.18164-11.6945 34.28571-2.46916 9.38466-3.21356 16.27399-3.27716 30.32998-.091 20.1207-1.81631 18.76174-3.13938-2.47283-.97687-15.67832 2.1412-40.60649 7.29451-58.31765 8.25064-28.35627 18.01745-39.38887 30.35955-34.29421 5.24254 2.16405 20.40303 2.57928 20.40303.55882 0-.73632-2.11251-.99595-4.69446-.57695-12.57643 2.04087-27.2522-8.19908-31.01573-21.64109-5.13564-18.34273.9247-33.92771 15.65473-40.25822 6.15825-2.64663 26.94133-1.81021 34.60714 1.39277 10.5811 4.42106 15.05594 15.54424 16.44525 40.8782.80668 14.70963.66572 16.22526-1.43398 15.41953-1.28073-.49146-2.66499-.34927-3.07613.31598-.41114.66524 1.48089 1.62759 4.20451 2.13854 18.10977 3.39742 31.0241 18.60549 37.19048 43.79599 3.62328 14.80159 4.40281 46.76329 1.53191 62.81067-4.63079 25.88456-7.38527 31.98559-13.69572 30.33537-2.11766-.55378-2.58245-3.56184-3.44776-22.3132-1.82363-39.51828-5.46891-70.95884-8.22711-70.95884-.79601 0-1.04027 1.71541-.55939 3.92857 2.25808 10.3923 3.62247 22.25187 5.25791 45.70285 1.64869 23.641 1.59202 26.02347-.75844 31.88782-11.59047 28.9181-9.81355 117.60199 2.94585 147.02268 3.37293 7.77733 3.74343 13.0344.90149 12.79108-.61395-.0526-3.75227-.92063-6.97406-1.92905zm-29.24721-300.67501c2.69225-.52583 5.14566-1.70804 5.45202-2.62713.4057-1.2171-.66897-1.31946-3.95589-.37678-2.48211.71186-12.48909 1.73745-22.23774 2.27909-9.74865.54164-17.72481 1.58017-17.72481 2.30783 0 1.37872 29.52286.16377 38.46642-1.58301zm-34.5962-17.30633c-.55044-2.10489.0675-3.03595 2.33339-3.5158 1.69515-.35899 4.36781-.9246 5.93924-1.2569 1.57143-.3323.10483-.67876-3.25912-.76991-6.34012-.17178-8.61857 1.8848-6.93855 6.26286 1.22151 3.18322 2.79215 2.59557 1.92504-.72025zm27.55835-2.08663c0-3.29721-4.95448-5.26843-9.19218-3.65726-5.26756 2.00273-4.51267 3.18121 1.33503 2.08417 4.03365-.75672 5-.49313 5 1.36384 0 1.26601.64286 2.30184 1.42858 2.30184.78571 0 1.42857-.94166 1.42857-2.09259z" color="#000" overflow="visible" style="marker:none"/>
    <filter id="drop-shadow-filter-3" color-interpolation-filters="sRGB" x="-50%" y="-50%" width="200%" height="200%" bx:preset="drop-shadow 1 11 10 3 0.5 rgba(0,0,0,0.3)">
      <feGaussianBlur in="SourceAlpha" stdDeviation="3"/>
      <feOffset dx="11" dy="10"/>
      <feComponentTransfer result="offsetblur">
        <feFuncA id="spread-ctrl" type="linear" slope="1"/>
      </feComponentTransfer>
      <feFlood flood-color="rgba(0,0,0,0.3)"/>
      <feComposite in2="offsetblur" operator="in"/>
      <feMerge>
        <feMergeNode/>
        <feMergeNode in="SourceGraphic"/>
      </feMerge>
    </filter>
    <filter id="gaussian-blur-filter-0" color-interpolation-filters="sRGB" x="-50%" y="-50%" width="200%" height="200%" bx:preset="gaussian-blur 1 1.3">
      <feGaussianBlur stdDeviation="1.3 1.3" edgeMode="none"/>
    </filter>
    <filter id="inner-shadow-filter-3" color-interpolation-filters="sRGB" x="-50%" y="-50%" width="200%" height="200%" bx:preset="inner-shadow 1 0 0 10 0.5 #1c4b7ab3">
      <feOffset dx="0" dy="0"/>
      <feGaussianBlur stdDeviation="10"/>
      <feComposite operator="out" in="SourceGraphic"/>
      <feComponentTransfer result="choke">
        <feFuncA type="linear" slope="1"/>
      </feComponentTransfer>
      <feFlood flood-color="#1c4b7ab3" result="color"/>
      <feComposite operator="in" in="color" in2="choke" result="shadow"/>
      <feComposite operator="over" in="shadow" in2="SourceGraphic"/>
    </filter>
    <filter id="outline-filter-0" color-interpolation-filters="sRGB" x="-50%" y="-50%" width="200%" height="200%" bx:preset="outline 1 1 #5a9fac">
      <feMorphology in="SourceAlpha" result="dilated" operator="dilate" radius="1"/>
      <feFlood flood-color="#5a9fac" result="flood"/>
      <feComposite in="flood" in2="dilated" operator="in" result="outline"/>
      <feMerge>
        <feMergeNode in="outline"/>
        <feMergeNode in="SourceGraphic"/>
      </feMerge>
    </filter>
  </defs>
  <path fill-opacity=".99719902" stroke-linecap="round" d="M 402.099 599.697 C 390.393 595.921 363.827 580.777 362.896 577.345 C 361.475 572.124 356.347 534.907 352.421 501.322 C 347.338 457.835 339.29 402.034 337.919 400.755 C 337.307 400.184 337.413 405.829 338.156 413.297 C 339.938 431.219 342.605 480.464 344.155 524.046 C 345.024 548.464 344.71 562.93 343.12 571.615 C 340.871 583.89 340.653 584.216 329.889 591.396 C 320.14 597.901 317.487 598.745 305.608 599.114 C 295.437 599.431 291.548 598.785 289.226 596.392 C 286.422 593.502 286.564 592.475 291.046 583.365 C 296.824 571.613 309.421 561.162 305.543 511.109 C 300.832 450.318 282.849 408.903 277.735 383.227 C 270.109 344.932 273.213 313.333 289.125 267.313 C 290.693 262.779 291.237 259.067 290.331 259.067 C 288.471 259.067 281.197 281.043 274.918 305.628 C 271.664 318.372 270.683 327.728 270.599 346.815 C 270.479 374.139 241.308 379.223 239.564 350.387 C 238.277 329.095 269.284 288.313 276.076 264.262 C 286.95 225.754 299.823 210.773 316.088 217.692 C 322.998 220.63 342.978 221.194 342.978 218.45 C 342.978 217.45 340.196 217.097 336.792 217.666 C 320.217 220.438 300.875 206.532 295.914 188.278 C 289.145 163.368 297.133 142.204 316.547 133.608 C 324.664 130.013 341.573 126.384 362.158 135.498 C 380.722 143.718 389.687 144.73 391.518 179.133 C 392.581 199.109 384.362 210.186 381.942 211.951 C 370.649 220.193 412.437 231.287 418.997 265.851 C 422.812 285.951 459.597 382.926 423.346 383.852 C 405.88 384.299 394.284 215.915 400.495 337.037 C 402.143 369.176 399.712 393.163 396.614 401.126 C 381.338 440.398 393.287 544.993 410.103 584.946 C 414.548 595.508 415.037 602.647 411.291 602.317 C 410.481 602.245 406.346 601.067 402.099 599.697 Z M 338.577 189.402 C 342.125 188.688 352.905 199.56 340.057 200.295 C 327.209 201.032 326.789 191.774 338.577 189.402 Z M 311.575 170.837 C 325.673 179.119 332.552 166.798 328.858 162.388 C 325.166 157.978 306.206 167.684 311.575 170.837 Z M 354.489 173.798 C 364.607 169.8 360.235 156.901 346.004 162.059 C 338.997 164.599 347.166 176.691 354.489 173.798 Z" color="#000" overflow="visible" style="marker: none; fill: rgb(92, 230, 226); filter: url(&quot;#drop-shadow-filter-3&quot;) url(&quot;#gaussian-blur-filter-0&quot;) url(&quot;#inner-shadow-filter-3&quot;);" stroke-width="2" stroke="#000"/>
  <path d="M 257.792 16.862 C 230.343 -4.027 193.948 -15.53 155.311 -15.53 C 116.716 -15.53 80.348 -4.047 52.909 16.801 C 24.989 38.015 9.537 66.393 9.374 96.738 C 9.368 96.868 9.366 96.999 9.368 97.13 L 9.367 97.222 C 9.367 97.342 9.371 97.461 9.377 97.591 C 9.396 135.37 19.986 169.481 40.003 196.251 C 58.866 221.482 85.507 239.689 117.04 248.908 C 121.717 250.272 126.073 245.907 124.882 241.052 C 124.659 240.149 124.25 239.305 123.683 238.576 C 112.51 224.248 103.806 207.818 97.815 189.745 C 96.245 185.006 90.284 183.797 87.086 187.567 C 85.603 189.316 85.139 191.75 85.868 193.948 C 90.078 206.648 95.533 218.603 102.167 229.681 C 81.243 220.351 63.435 206.276 50.004 188.312 C 31.685 163.812 22 132.401 22 97.474 C 22 97.386 21.998 97.299 21.996 97.208 L 21.998 97.058 C 22.117 42.151 81.921 -2.521 155.312 -2.521 C 228.823 -2.521 288.629 42.223 288.629 97.222 C 288.629 123.092 275.025 147.471 250.322 165.865 C 225.447 184.392 191.614 195.435 155.055 196.968 C 146.835 197.314 138.177 196.791 129.32 195.415 C 125.87 194.878 122.653 197.325 122.139 200.881 C 121.619 204.431 123.993 207.746 127.442 208.28 C 135.155 209.477 142.753 210.079 150.101 210.079 C 151.94 210.079 153.763 210.041 155.568 209.966 C 194.578 208.331 230.856 196.415 257.719 176.408 C 285.793 155.504 301.255 127.379 301.255 97.222 C 301.252 66.723 285.819 38.187 257.792 16.862 Z" opacity="1" data-original="#000000" style="fill: rgb(106, 126, 126);"/>
  <text style="fill: rgb(49, 104, 123); font-family: &quot;Ink Free&quot;; font-size: 48px; font-weight: 700; stroke-width: 3.374px; white-space: pre; filter: url(&quot;#outline-filter-0&quot;); transform-box: fill-box; transform-origin: 50% 50%;" transform="matrix(1.039756, -0.210587, 0.250282, 1.235741, -45.086933, -58.442593)" x="81.832" y="169.425">I promise...</text>
</svg>
