<svg version="1.1" id="Capa_1" xmlns="http://www.w3.org/2000/svg" xmlns:xlink="http://www.w3.org/1999/xlink" x="0" y="0"
	 viewBox="0 0 465.652 465.652" style="enable-background:new 0 0 465.652 465.652;" xml:space="preserve">
<g id="XMLID_30_">
	<path id="XMLID_52_" d="M72.496,99.921c18.224,0,32.993-14.762,32.993-32.994S90.72,33.93,72.496,33.93
		c-18.225,0-32.995,14.764-32.995,32.996S54.271,99.921,72.496,99.921z" fill="#fa0"/>
	<path id="XMLID_51_" d="M32.446,331.388c0.329-0.789,0.612-1.64,1.018-2.352l0.765-1.501l32.091-46.57v-26.537h3.026
		c-0.167-1.416-0.428-2.812-0.428-4.273c0-20.746,17.589-35.906,35.904-35.906c0.72,0,6.72,0.659,7.669,0.866v-14.288v-66.525h7.079
		l6.059-20.921c0.744-2.567,1.954-4.85,3.348-6.971c0,0-75.544-0.139-81.725-0.139c-7.821,0-14.7,2.979-16.838,10.364L0.561,219.742
		c-2.168,7.485,2.139,15.313,9.63,17.475c7.515,2.198,15.328-2.2,17.475-9.63l4.818-16.639
		C32.484,210.948,32.446,227.984,32.446,331.388z" fill="#fa0"/>
	<path id="XMLID_50_" d="M34.2,351.63c-0.146,0-0.821-1.196-1.455-2.498c-0.131-0.269-0.184-0.521-0.298-0.789v7.01
		c0,2.557,0.657,4.933,1.677,7.108c1.271-1.885,2.804-3.601,4.643-5.017l-4.558-5.814H34.2z" fill="#fa0"/>
	<path id="XMLID_49_" d="M393.158,99.921c18.225,0,32.994-14.762,32.994-32.994S411.382,33.93,393.158,33.93
		c-18.227,0-32.996,14.764-32.996,32.996S374.931,99.921,393.158,99.921z" fill="#fa0"/>
	<path id="XMLID_48_" d="M465.09,219.742l-29.853-103.106c-2.153-7.43-9.001-10.364-16.838-10.364h-0.008
		c-52.653,0-4.467,0-50.469,0h-0.008c-7.783,0-14.693,2.95-16.839,10.364l-15.443,53.342v54.638
		c6.756-6.65,16.363-10.366,25.18-10.366c18.263,0,35.906,15.123,35.906,35.906c0,1.462-0.26,2.857-0.428,4.273h3.04v26.568
		c1.586,2.32,32.789,47.756,33.876,50.346c0-91.102-0.038-113.094-0.038-120.395l4.818,16.639
		c2.168,7.515,10.027,11.805,17.475,9.63C462.954,235.055,467.259,227.227,465.09,219.742z" fill="#fa0"/>
	<path id="XMLID_47_" d="M430.656,352.862l-0.943,1.393l-2.588,2.903c1.815,1.449,3.309,3.187,4.55,5.079
		c0.951-2.113,1.532-4.419,1.532-6.886v-7.033c-0.107,0.238-0.161,0.482-0.276,0.728
		C432.242,350.464,431.552,351.682,430.656,352.862z" fill="#090"/>
	<path id="XMLID_46_" d="M178.947,99.921c18.219,0,32.996-14.762,32.996-32.994S197.167,33.93,178.947,33.93
		c-18.232,0-33.001,14.764-33.001,32.996S160.715,99.921,178.947,99.921z" fill="#090"/>
	<path id="XMLID_45_" d="M285.386,99.921c18.224,0,32.996-14.762,32.996-32.994S303.61,33.93,285.386,33.93
		c-18.225,0-32.994,14.764-32.994,32.996S267.162,99.921,285.386,99.921z" fill="#090"/>
	<path id="XMLID_44_" d="M122.734,219.22c11.875,6.918,17.995,19.352,17.995,30.935c0,3.769-0.743,7.34-1.831,10.763v15.497
		c1.348,1.173,2.812,2.206,3.854,3.716l25.924,38.043l4.098-5.944v-57.801h12.342v39.89l9.781-14.195
		c2.491-3.606,6.138-5.929,10.166-7.476c-5.017-6.176-8.15-13.935-8.15-22.492c0-14.977,9.278-27.764,22.025-33.103v-16.226v-66.525
		h7.084l6.053-20.913c0.749-2.575,1.954-4.857,3.354-6.978c-157.717,0.214,97.201-0.139-81.73-0.139
		c-7.837,0-14.702,2.995-16.831,10.364l-14.134,48.815V219.22z" fill="#090"/>
	<path id="XMLID_43_" d="M229.18,214.616c1.211-0.122,2.389-0.367,3.638-0.367c19.542,0,35.906,15.987,35.906,35.906
		c0,8.557-3.133,16.316-8.15,22.492c4.029,1.547,7.675,3.86,10.172,7.483l8.48,12.441v-38.143h12.342v56.254l5.102,7.491
		l26.221-38.051c0.69-0.995,1.725-1.608,2.551-2.466v-8.948h-0.054c0-0.016,0-134.399,0-134.399l8.39-0.008l6.059-20.921
		c0.744-2.567,1.947-4.842,3.348-6.956c-116.381-0.168,33.355-0.153-83.035-0.153c-7.866,0-14.708,2.995-16.837,10.364
		l-14.134,48.815V214.616z" fill="#090"/>
	<path id="XMLID_42_" d="M360.813,276.638c14.625,0,26.491-11.859,26.491-26.483c0-14.632-11.866-26.491-26.491-26.491
		c-14.624,0-26.49,11.859-26.49,26.491C334.323,264.779,346.189,276.638,360.813,276.638z" fill="#09b"/>
	<path id="XMLID_41_" d="M232.818,223.664c-14.624,0-26.489,11.859-26.489,26.491c0,14.624,11.865,26.483,26.489,26.483
		c14.625,0,26.491-11.859,26.491-26.483C259.309,235.523,247.443,223.664,232.818,223.664z" fill="#09b"/>
	<path id="XMLID_40_" d="M417.855,362.675l-13.966,15.65c-1.669,1.876-3.7,3.218-5.836,4.243l-9.914,32.734
		c-1.975,6.528,1.709,13.414,8.235,15.391c1.196,0.361,2.399,0.537,3.587,0.537c5.294-0.008,10.188-3.441,11.804-8.773
		l13.552-44.739C427.201,371.493,423.885,364.972,417.855,362.675z" fill="#09b"/>
	<path id="XMLID_39_" d="M323.399,382.487l0.038-0.017c-2.076-1.02-4.061-2.314-5.7-4.145l-13.682-15.329v0.008
		c3.049,5.079,4.136,11.308,2.275,17.443l-4.674,15.422l8.206,27.08c1.953,6.458,8.764,10.234,15.389,8.235
		c6.528-1.977,10.212-8.864,8.236-15.391L323.399,382.487z" fill="#09b"/>
	<path id="XMLID_38_" d="M399.286,374.219l23.372-26.191c3.364-3.816,4.06-10.642,0.959-15.223
		c-25.886-37.576-23.212-33.699-32.627-47.342c-2.03-2.935-5.102-4.643-8.366-5.126c-0.85-0.13-1.716-0.03-2.574,0.023
		c-5.002,3.187-12.572,5.692-19.236,5.692c-6.665,0-14.233-2.506-19.234-5.692c-0.858-0.054-1.725-0.153-2.575-0.023
		c-3.264,0.476-6.344,2.184-8.366,5.126l-6.112,8.862l-18.946,27.495l-3.225,4.689c5.684,8.342,7.263,16.669,0.551,25.931
		l19.436,21.779c4.512,5.057,12.303,5.547,17.427,0.988c5.088-4.535,5.532-12.341,0.988-17.429l-16.915-18.952
		c5.347-7.752,15.957-23.151,21.014-30.488l-14.54,28.474c5.646,6.327,10.081,11.292,15.046,16.861
		c5.147,5.769,5.99,13.851,2.811,20.4c-0.023,0.054-0.085,0.093-0.108,0.145h25.494c-0.114-0.236-0.213-0.467-0.321-0.704
		c-2.873-6.451-1.976-14.235,3.026-19.842c5.187-5.807,9.615-10.77,15.046-16.861l-14.541-28.474
		c5.057,7.337,15.667,22.736,21.014,30.488l-16.915,18.952c-4.543,5.088-4.1,12.894,0.989,17.429c2.358,2.1,5.293,3.134,8.211,3.134
		C393.471,378.341,396.85,376.946,399.286,374.219z" fill="#09b"/>
	<path id="XMLID_37_" d="M289.86,362.675l-13.966,15.65c-1.669,1.876-3.699,3.218-5.836,4.243l-9.915,32.734
		c-1.975,6.528,1.709,13.414,8.236,15.391c6.626,1.999,13.445-1.807,15.391-8.235l13.552-44.739
		C299.206,371.493,295.89,364.972,289.86,362.675z" fill="#09b"/>
	<path id="XMLID_36_" d="M195.404,382.487l0.038-0.017c-2.076-1.02-4.061-2.314-5.7-4.145l-13.681-15.329
		c-6.236,2.183-9.668,8.879-7.746,15.215l13.553,44.738c1.954,6.458,8.764,10.234,15.39,8.235
		c6.528-1.977,10.212-8.864,8.235-15.391L195.404,382.487z" fill="#09b"/>
	<path id="XMLID_35_" d="M271.291,374.219l23.372-26.191c3.387-3.847,3.977-10.756,0.958-15.223
		c-18.899-27.409-18.478-26.827-32.626-47.342c-2.023-2.942-5.103-4.65-8.365-5.126c-0.851-0.13-1.717-0.03-2.575,0.023
		c-5.001,3.187-12.572,5.692-19.237,5.692c-6.664,0-14.233-2.506-19.234-5.692c-0.858-0.054-1.725-0.153-2.575-0.023
		c-3.263,0.483-6.336,2.191-8.366,5.126l-6.113,8.862c-20.509,29.763-16.379,23.765-26.514,38.479
		c-3.019,4.467-2.459,11.346,0.957,15.223l23.374,26.191c4.512,5.057,12.304,5.547,17.427,0.988
		c5.086-4.535,5.532-12.341,0.989-17.429l-16.915-18.952c5.347-7.752,15.957-23.151,21.013-30.488l-14.539,28.474
		c5.646,6.327,10.082,11.292,15.046,16.861c5.148,5.769,5.99,13.851,2.812,20.4c-0.024,0.054-0.085,0.093-0.108,0.145h25.494
		c-0.114-0.236-2.32-4.244-1.722-11.223c0.489-5.76,4.427-9.323,4.427-9.323c5.187-5.807,9.614-10.77,15.046-16.861l-14.541-28.474
		l17.405,25.256l3.608,5.232l-16.914,18.952c-4.544,5.088-4.1,12.894,0.986,17.429C258.988,379.766,266.779,379.276,271.291,374.219
		z" fill="#09b"/>
	<path id="XMLID_34_" d="M162.195,362.307c-0.528,0.59-13.752,15.406-14.296,16.018c-1.67,1.876-3.699,3.218-5.836,4.243
		l-9.914,32.734c-1.976,6.528,1.708,13.414,8.235,15.391c6.627,1.999,13.446-1.807,15.391-8.235l8.06-26.589l-4.528-14.932
		C157.276,374.243,158.746,367.188,162.195,362.307z" fill="#09b"/>
	<path id="XMLID_33_" d="M67.409,382.487l0.038-0.017c-2.076-1.02-4.061-2.314-5.7-4.145l-13.681-15.329
		c-6.236,2.183-9.669,8.879-7.745,15.215l13.552,44.738c1.953,6.458,8.764,10.234,15.39,8.235
		c6.526-1.977,10.212-8.864,8.235-15.391L67.409,382.487z" fill="#09b"/>
	<path id="XMLID_32_" d="M143.296,374.219l19.497-21.84l-0.59-0.75c-1.402,0-3.448-8.918-3.54-10.513
		c-0.284-4.419,0.659-9.359,4.444-14.86l-3.051-4.429c-21.901-31.791-16.523-23.986-25.057-36.364
		c-2.022-2.942-5.102-4.65-8.365-5.126c-0.85-0.13-1.716-0.03-2.574,0.023c-5.002,3.187-12.572,5.692-19.237,5.692
		c-6.664,0-14.232-2.506-19.235-5.692c-0.858-0.054-1.724-0.153-2.574-0.023c-3.263,0.476-6.343,2.184-8.366,5.126
		c-9.415,13.643-7.775,11.268-32.627,47.342c-3.018,4.467-2.458,11.346,0.957,15.223l23.374,26.191
		c4.512,5.057,12.303,5.547,17.428,0.988c5.086-4.535,5.531-12.341,0.988-17.429l-16.914-18.952l3.609-5.232l17.403-25.256
		l-14.54,28.474c5.646,6.327,10.083,11.292,15.046,16.861c5.148,5.769,5.991,13.851,2.811,20.4
		c-0.023,0.054-0.084,0.093-0.108,0.145h25.495c-3.424-7.078-2.214-15.037,2.705-20.546c5.187-5.807,9.614-10.77,15.046-16.861
		l-14.541-28.474l17.406,25.256l3.608,5.232l-16.915,18.952c-4.543,5.088-4.1,12.894,0.987,17.429
		C130.992,379.766,138.784,379.276,143.296,374.219z" fill="#09b"/>
	<path id="XMLID_31_" d="M104.823,223.664c-14.623,0-26.489,11.859-26.489,26.491c0,14.624,11.866,26.483,26.489,26.483
		c14.626,0,26.491-11.859,26.491-26.483C131.314,235.523,119.449,223.664,104.823,223.664z" fill="#09b"/>
</g>
</svg>
