<svg width="320" height="480" viewBox="0 0 400 1000" preserveAspectRatio="xMinYMin meet" xmlns="http://www.w3.org/2000/svg">
  <defs>
    <path id="first-figure" stroke-linecap="round" d="M 151.459 1006.69 C 147.345 1002.858 148.529 997.837 157.184 982.414 C 164.019 970.233 163.76 972.299 161.838 945.172 C 152.938 819.598 143.19 733.573 133.467 694.815 C 129.377 678.509 128.734 674.199 128.313 660.253 C 127.411 630.383 133.359 600.329 150.053 550.4 C 153.047 541.446 155.242 533.884 154.929 533.595 C 154.617 533.306 153.705 532.872 152.903 532.63 C 151.232 532.127 151.862 530.717 145.767 548.595 C 133.056 585.881 125.863 616.962 123.998 642.667 C 122.659 661.104 123.872 675.612 128.174 692.655 C 129.302 697.121 130.065 700.935 129.87 701.13 C 129.478 701.521 127.441 697.018 125.718 691.95 C 120.685 677.149 118.429 652.597 119.907 628.693 C 123.567 569.476 140.046 509.952 160.175 483.239 C 168.402 472.321 176.852 467.154 183.893 468.736 C 186.003 469.21 186.795 469.081 188.058 468.058 L 189.617 466.795 L 184.676 459.217 C 175.47 445.099 168.802 429.856 165.848 416.178 C 164.12 408.175 164.126 391.955 165.861 384.992 C 170.241 367.411 182.364 354.302 199.306 348.829 C 204.318 347.21 207.17 347.218 231.733 348.924 C 273.498 351.826 280.142 358.774 280.127 399.528 C 280.125 407.093 279.513 423.252 278.769 435.437 C 277.058 463.457 276.982 460.659 279.45 460.659 C 280.575 460.659 281.495 460.395 281.495 460.072 C 281.495 459.078 291.777 464.404 297.174 468.194 C 316.018 481.428 337.579 512.123 346.542 538.475 C 351.883 554.177 353.652 569.389 351.445 580.638 C 350.08 587.6 346.107 596.104 342.087 600.671 C 333.189 610.78 318.258 616.916 302.573 616.911 C 291.213 616.907 282.077 614.65 270.248 608.925 C 257.767 602.885 246.896 593.812 243.342 586.472 C 241.624 582.922 241.928 581.132 244.537 579.423 C 246.858 577.904 255.459 577.97 266.84 579.595 C 276.405 580.96 293.458 581.174 299.901 580.008 C 306.03 578.9 312.059 576.858 319.669 573.315 C 323.545 571.511 327.583 570.147 329.724 569.918 C 333.118 569.556 333.303 569.436 333.303 567.587 C 333.303 566.04 332.986 565.623 331.769 565.568 C 327.484 565.375 324.941 565.972 319.329 568.486 C 315.954 569.998 311.785 571.796 310.064 572.482 L 306.935 573.729 L 306.844 571.217 C 306.683 566.8 303.861 559.505 297.038 545.869 C 288.764 529.334 289.629 530.611 287.398 531.628 C 286.401 532.082 285.585 532.674 285.585 532.943 C 285.585 533.213 288.375 538.849 291.786 545.469 C 297.528 556.616 302.604 569.044 302.62 571.997 C 302.62 573.028 302.274 573.167 300.586 572.796 C 298.835 572.411 298.452 572.59 297.896 574.051 C 297.345 575.502 296.662 575.828 293.305 576.248 C 288.352 576.867 273.75 576.145 264.794 574.838 C 255.04 573.416 246.412 573.527 242.9 575.122 C 239.13 576.834 237.868 578.815 237.868 583.017 C 237.868 599.127 274.507 621.535 300.849 621.535 L 306.419 621.535 L 307.302 623.751 C 313.183 638.498 313.695 641.798 313.61 664.419 C 313.522 687.764 314.246 700.112 316.89 720.378 C 321.837 758.291 322.344 769.027 323.075 851.261 C 323.869 940.624 324.145 944.986 330.604 970.214 C 334.568 985.698 336.028 993.785 336.018 1000.208 C 335.999 1008.759 339.36 1019.06 324.177 1013.831 L 307.381 1008.047 L 299.721 1004.623 C 290.682 1000.582 277.33 993.353 266.771 986.784 L 259.205 982.076 L 256.379 964.897 C 251.501 935.243 250.242 925.753 241.63 853.737 C 238.554 828.018 234.343 797.619 231.702 782.07 C 230.385 774.318 225.007 733.717 224.945 731.061 C 224.921 730.014 224.56 729.89 222.701 730.288 C 221.482 730.549 220.438 730.804 220.38 730.854 C 220.323 730.904 221.586 741.681 223.189 754.803 C 225.712 775.46 226.159 781.178 226.521 797.408 C 227.018 819.691 228.201 839.623 231.134 875.119 C 233.016 897.902 233.309 904.601 233.357 925.905 C 233.416 952.763 232.933 958.533 228.995 977.962 C 227.883 983.449 226.97 988.135 226.967 988.377 C 226.967 988.619 220.302 993.066 212.164 998.261 L 197.367 1007.706 L 172.759 1011.277 C 151.352 1014.383 152.932 1008.063 151.459 1006.691 L 151.459 1006.69 Z M 213.129 664.02 L 216.241 662.196 L 219.604 664.086 C 221.453 665.126 223.056 665.87 223.167 665.74 C 223.568 665.267 224.916 662.516 224.916 662.168 C 224.916 661.972 223.533 661.001 221.842 660.01 C 218.291 657.929 215.173 657.729 211.731 659.363 C 208.261 661.009 207.666 661.915 208.645 664.064 C 209.091 665.043 209.582 665.844 209.736 665.844 C 209.891 665.844 211.417 665.023 213.129 664.02 Z M 239.769 454.561 C 243.69 452.505 245.803 450.432 248.358 446.133 C 250.934 441.797 253.038 435.493 254.203 428.62 C 254.616 426.183 255.121 423.347 255.326 422.319 L 255.697 420.449 L 248.981 422.787 C 245.286 424.073 240.277 426.064 237.85 427.213 C 231.896 430.029 229.002 429.963 223.904 426.893 C 221.704 425.569 217.926 422.796 215.507 420.731 C 211.318 417.155 211.048 417.031 209.832 418.132 C 209.13 418.768 208.555 419.7 208.555 420.205 C 208.555 420.709 208.095 421.121 207.533 421.121 C 206.263 421.121 206.265 421.347 207.59 427.797 C 209.924 439.155 217.665 450.436 225.687 454.17 C 230.322 456.328 236.094 456.488 239.769 454.561 Z M 196.852 398.221 C 198.247 397.244 198.308 396.986 197.456 395.665 C 195.517 392.656 195.556 391.038 197.611 389.118 C 200.343 386.566 203.771 385.616 211.793 385.187 L 218.781 384.814 L 218.781 380.221 L 214.992 380.221 C 205.913 380.221 196.297 382.953 193.154 386.427 C 191.404 388.36 191.351 394.85 193.063 397.463 C 194.472 399.613 194.777 399.674 196.852 398.221 Z M 261.202 393.565 C 262.039 389.185 257.822 383.393 251.958 380.871 C 249.038 379.615 247.605 379.434 242.675 379.698 C 236.812 380.013 233.096 381.133 233.096 382.586 C 233.096 383.016 233.49 383.907 233.971 384.565 C 234.8 385.7 235.061 385.702 239.003 384.606 C 244.141 383.178 248.192 383.668 252.081 386.19 C 255.034 388.105 257.236 391.647 256.563 393.401 C 256.278 394.144 256.71 394.517 258.094 394.724 C 259.155 394.883 260.217 395.059 260.454 395.116 C 260.691 395.172 261.028 394.474 261.202 393.565 Z"/>
    <path id="figure" stroke-linecap="round" d="M 489.299 932.089 C 472.344 926.782 433.874 905.496 432.523 900.673 C 430.467 893.335 423.041 841.024 417.355 793.82 C 409.993 732.699 398.339 654.268 396.353 652.471 C 395.466 651.668 395.62 659.601 396.695 670.098 C 399.276 695.289 403.14 764.505 405.385 825.758 C 406.643 860.079 406.186 880.411 403.883 892.619 C 400.628 909.872 400.312 910.33 384.723 920.423 C 370.606 929.564 366.763 930.75 349.56 931.27 C 334.83 931.715 329.198 930.807 325.836 927.444 C 321.774 923.382 321.981 921.938 328.469 909.134 C 336.839 892.617 336.996 887.665 331.379 817.314 C 324.557 731.871 316.601 663.922 309.195 627.834 C 298.148 574.009 302.645 529.596 325.689 464.913 C 327.96 458.539 328.746 453.325 327.436 453.325 C 324.741 453.325 314.207 484.211 305.115 518.766 C 300.402 536.678 298.981 549.828 298.86 576.657 C 298.686 615.061 295.393 612.467 292.868 571.937 C 291.003 542.012 296.954 494.431 306.791 460.626 C 322.539 406.502 341.18 385.444 364.738 395.168 C 374.744 399.299 403.681 400.092 403.681 396.235 C 403.681 394.83 399.649 394.334 394.721 395.134 C 370.716 399.029 342.705 379.484 335.521 353.828 C 325.719 318.817 337.286 289.07 365.401 276.987 C 377.156 271.935 416.824 273.532 431.456 279.645 C 451.652 288.084 460.193 309.314 462.845 357.669 C 464.385 385.746 464.116 388.638 460.108 387.101 C 457.663 386.162 455.021 386.434 454.237 387.704 C 453.452 388.973 457.063 390.81 462.262 391.785 C 496.828 398.27 521.477 427.298 533.247 475.379 C 540.163 503.631 541.651 564.636 536.171 595.266 C 527.332 644.671 522.075 656.316 510.03 653.167 C 505.988 652.11 505.101 646.368 503.449 610.578 C 499.969 535.149 493.011 475.138 487.746 475.138 C 486.227 475.138 485.761 478.413 486.679 482.637 C 490.989 502.473 493.593 525.109 496.714 569.87 C 499.861 614.993 499.753 619.541 495.267 630.734 C 473.144 685.93 476.536 855.201 500.889 911.356 C 507.327 926.201 508.034 936.235 502.61 935.771 C 501.438 935.67 495.448 934.013 489.299 932.089 Z M 433.475 358.19 C 438.613 357.187 443.296 354.93 443.881 353.176 C 444.655 350.853 442.604 350.657 436.33 352.457 C 431.593 353.815 412.492 355.773 393.885 356.807 C 375.278 357.841 360.054 359.823 360.054 361.212 C 360.054 363.843 416.404 361.524 433.475 358.19 Z M 367.441 325.158 C 366.39 321.14 367.57 319.363 371.895 318.447 C 375.13 317.762 380.231 316.682 383.231 316.048 C 386.23 315.414 383.431 314.753 377.01 314.579 C 364.909 314.251 360.56 318.176 363.766 326.532 C 366.098 332.608 369.096 331.487 367.441 325.158 Z M 420.041 321.175 C 420.041 314.882 410.585 311.119 402.496 314.194 C 392.442 318.017 393.883 320.266 405.044 318.172 C 412.743 316.728 414.588 317.231 414.588 320.776 C 414.588 323.192 415.815 325.169 417.315 325.169 C 418.814 325.169 420.041 323.372 420.041 321.175 Z"/>
  </defs>
  <use href="#figure" x="80" y="-180" fill="#fa0" />
  <use href="#figure" x="-20" y="-140" fill="#f0f" />
  <use href="#figure" x="-120" y="-100" fill="#090" />
  <use href="#first-figure" x="-100" y="-100" fill="#09b" />
</svg>
