<svg width="32" height="32" viewBox="0 0 32 32" fill="none" xmlns="http://www.w3.org/2000/svg">
<path d="M30.1595 0L17.7637 9.06888L20.0584 3.72945L30.1595 0Z" fill="#E27625"/>
<path d="M1.57739 0L13.8503 9.1504L11.658 3.72945L1.57739 0Z" fill="#E27625"/>
<path d="M25.6937 21.0116L22.395 26.0045L29.4432 27.9202L31.4716 21.1338L25.6937 21.0116Z" fill="#E27625"/>
<path d="M0.266602 21.1338L2.27452 27.9202L9.32274 26.0045L6.0445 21.0116L0.266602 21.1338Z" fill="#E27625"/>
<path d="M8.93278 12.6151L6.98633 15.5293L13.9731 15.835L13.7272 8.4169L8.93278 12.6151Z" fill="#E27625"/>
<path d="M22.7835 12.6159L17.9276 8.33618L17.7637 15.8358L24.7504 15.5301L22.7835 12.6159Z" fill="#E27625"/>
<path d="M9.32178 26.0044L13.5425 23.9868L9.91596 21.1744L9.32178 26.0044Z" fill="#E27625"/>
<path d="M18.1733 23.9868L22.3941 26.0044L21.8204 21.1744L18.1733 23.9868Z" fill="#E27625"/>
<path d="M22.3941 26.0042L18.1733 23.9866L18.5217 26.6767L18.4807 27.8384L22.3941 26.0042Z" fill="#D7C1B3"/>
<path d="M9.32178 26.0042L13.2352 27.8384L13.2147 26.6767L13.5425 23.9866L9.32178 26.0042Z" fill="#D7C1B3"/>
<path d="M13.3176 19.3819L9.81396 18.363L12.2931 17.2421L13.3176 19.3819Z" fill="#2F343B"/>
<path d="M18.4197 19.3819L19.4441 17.2421L21.9233 18.363L18.4197 19.3819Z" fill="#2F343B"/>
<path d="M9.32243 26.0045L9.9371 21.0116L6.04419 21.1338L9.32243 26.0045Z" fill="#CC6228"/>
<path d="M21.8008 21.0116L22.395 26.0045L25.6937 21.1338L21.8008 21.0116Z" fill="#CC6228"/>
<path d="M24.7504 15.5301L17.7637 15.8358L18.4193 19.3818L19.4438 17.242L21.9229 18.3628L24.7504 15.5301Z" fill="#CC6228"/>
<path d="M9.81381 18.3628L12.293 17.242L13.3174 19.3818L13.9731 15.8358L6.98633 15.5301L9.81381 18.3628Z" fill="#CC6228"/>
<path d="M6.98633 15.5301L9.91626 21.1752L9.81381 18.3628L6.98633 15.5301Z" fill="#E27625"/>
<path d="M21.923 18.3628L21.8206 21.1752L24.7505 15.5301L21.923 18.3628Z" fill="#E27625"/>
<path d="M13.973 15.8345L13.3174 19.3806L14.1369 23.5584L14.3213 18.0559L13.973 15.8345Z" fill="#E27625"/>
<path d="M17.7641 15.8345L17.4158 18.0355L17.6002 23.5584L18.4197 19.3806L17.7641 15.8345Z" fill="#E27625"/>
<path d="M18.4194 19.3811L17.5999 23.5589L18.1735 23.9869L21.8206 21.1745L21.923 18.3622L18.4194 19.3811Z" fill="#F5841F"/>
<path d="M9.81396 18.3622L9.91641 21.1745L13.543 23.9869L14.1371 23.5589L13.3176 19.3811L9.81396 18.3622Z" fill="#F5841F"/>
<path d="M18.4804 27.8382L18.5213 26.6766L18.214 26.4116H13.522L13.2147 26.6766L13.2352 27.8382L9.32178 26.004L10.6945 27.1045L13.481 28.9998H18.2345L21.0415 27.1045L22.3938 26.004L18.4804 27.8382Z" fill="#C0AD9E"/>
<path d="M18.1732 23.987L17.5995 23.559H14.1368L13.5427 23.987L13.2148 26.6771L13.5222 26.4121H18.2142L18.5215 26.6771L18.1732 23.987Z" fill="#2F343B"/>
<path d="M30.6716 9.65989L31.7166 4.64653L30.1594 0L18.1733 8.76319L22.7834 12.6149L29.2989 14.4695L30.7331 12.8187L30.0979 12.3704L31.1019 11.4737L30.3438 10.903L31.3273 10.149L30.6716 9.65989Z" fill="#763E1A"/>
<path d="M0 4.64653L1.06543 9.65989L0.38929 10.149L1.39325 10.903L0.635157 11.4737L1.61863 12.3704L1.00396 12.8187L2.43819 14.4695L8.9332 12.6149L13.5432 8.76319L1.57765 0L0 4.64653Z" fill="#763E1A"/>
<path d="M29.299 14.47L22.7835 12.6154L24.7505 15.5297L21.8206 21.1748L25.693 21.134H31.4709L29.299 14.47Z" fill="#F5841F"/>
<path d="M8.93345 12.6154L2.43844 14.47L0.266602 21.134H6.0445L9.91692 21.1748L6.98699 15.5297L8.93345 12.6154Z" fill="#F5841F"/>
<path d="M17.7634 15.8348L18.1732 8.76311L20.0582 3.72937H11.6577L13.5427 8.76311L13.973 15.8348L14.1164 18.0765L14.1369 23.5586H17.5995V18.0765L17.7634 15.8348Z" fill="#F5841F"/>
<path d="M123.362 7.28021C122.675 6.81447 121.895 6.50397 121.177 6.10032C120.709 5.82087 120.209 5.60353 119.803 5.26198C119.116 4.70309 119.241 3.5853 119.991 3.08851C121.021 2.40541 122.769 2.778 122.956 4.20629C122.956 4.23734 122.987 4.26839 123.019 4.26839H124.611C124.642 4.26839 124.673 4.23734 124.673 4.20629C124.579 3.2127 124.205 2.40541 123.518 1.87756C122.862 1.38077 122.082 1.10132 121.27 1.10132C117.087 1.10132 116.713 5.47933 118.96 6.87656C119.21 7.03181 121.426 8.1496 122.207 8.61535C122.987 9.08109 123.237 9.98153 122.894 10.6646C122.581 11.2856 121.801 11.7203 120.989 11.6893C120.115 11.6272 119.429 11.1614 119.21 10.4473C119.179 10.3231 119.148 10.0747 119.148 9.95048C119.148 9.91943 119.116 9.88838 119.085 9.88838H117.368C117.337 9.88838 117.306 9.91943 117.306 9.95048C117.306 11.1925 117.618 11.8756 118.461 12.4966C119.241 13.0865 120.115 13.3349 120.989 13.3349C123.331 13.3349 124.548 12.0308 124.767 10.6646C124.954 9.26739 124.548 8.05646 123.362 7.28021Z" fill="white"/>
<path d="M50.034 1.28778H47.4431C47.4118 1.28778 47.3806 1.31883 47.3806 1.31883L45.9759 5.94523C45.9447 6.00733 45.8822 6.00733 45.851 5.94523L44.4463 1.34988C44.4463 1.31883 44.4151 1.31883 44.3838 1.31883H41.7617C41.7304 1.31883 41.6992 1.34989 41.6992 1.38094V13.1177C41.6992 13.1488 41.7304 13.1798 41.7617 13.1798H43.4786C43.5098 13.1798 43.541 13.1488 43.541 13.1177V4.17541C43.541 4.11331 43.6346 4.08226 43.6659 4.14436L45.0706 8.77076L45.1643 9.1123C45.1643 9.14335 45.1955 9.14336 45.2267 9.14336H46.5378C46.569 9.14336 46.6002 9.1123 46.6002 9.1123L46.6939 8.77076L48.0986 4.14436C48.1298 4.08226 48.2235 4.08226 48.2235 4.17541V13.1177C48.2235 13.1488 48.2547 13.1798 48.2859 13.1798H50.0028C50.034 13.1798 50.0652 13.1488 50.0652 13.1177V1.34988C50.0965 1.31883 50.0652 1.28778 50.034 1.28778Z" fill="white"/>
<path d="M97.1401 1.28778C97.1089 1.28778 97.0777 1.31883 97.0777 1.31883L95.6729 5.91418C95.6417 5.97628 95.5793 5.97628 95.5481 5.91418L94.1433 1.31883C94.1433 1.28778 94.1121 1.28778 94.0809 1.28778H91.4899C91.4587 1.28778 91.4275 1.31883 91.4275 1.34988V13.1177C91.4275 13.1488 91.4587 13.1798 91.4899 13.1798H93.2068C93.238 13.1798 93.2693 13.1488 93.2693 13.1177V4.17541C93.2693 4.11331 93.3629 4.08226 93.3941 4.14436L94.7989 8.77076L94.8925 9.1123C94.8925 9.14335 94.9237 9.14336 94.955 9.14336H96.266C96.2973 9.14336 96.3285 9.1123 96.3285 9.1123L96.4221 8.77076L97.8269 4.14436C97.8581 4.08226 97.9517 4.08226 97.9517 4.17541V13.1177C97.9517 13.1488 97.983 13.1798 98.0142 13.1798H99.7311C99.7623 13.1798 99.7935 13.1488 99.7935 13.1177V1.34988C99.7935 1.31883 99.7623 1.28778 99.7311 1.28778H97.1401Z" fill="white"/>
<path d="M75.0696 1.28778H66.9846C66.9533 1.28778 66.9221 1.31883 66.9221 1.34988V2.80921C66.9221 2.84026 66.9533 2.87132 66.9846 2.87132H70.1062V13.1177C70.1062 13.1488 70.1374 13.1798 70.1686 13.1798H71.8855C71.9168 13.1798 71.948 13.1488 71.948 13.1177V2.87132H75.0696C75.1008 2.87132 75.1321 2.84026 75.1321 2.80921V1.34988C75.1321 1.31883 75.1008 1.28778 75.0696 1.28778Z" fill="white"/>
<path d="M81.0628 7.99486L82.3115 3.39952C82.3427 3.33742 82.4052 3.33742 82.4364 3.39952L83.685 7.99486C83.685 8.02591 83.6538 8.08801 83.6226 8.08801H81.1253C81.0941 8.05696 81.0628 8.02591 81.0628 7.99486ZM85.1522 13.1802H86.713C86.7442 13.1802 86.7755 13.1491 86.7755 13.087L83.5602 1.28813C83.5602 1.25708 83.5289 1.25708 83.4977 1.25708H81.2501C81.2189 1.25708 81.1877 1.28813 81.1877 1.28813L77.9724 13.087C77.9724 13.1181 78.0036 13.1802 78.0348 13.1802H79.5957C79.6269 13.1802 79.6581 13.1491 79.6581 13.1491L80.5946 9.7026C80.5946 9.67155 80.6258 9.67155 80.657 9.67155H84.0908C84.1221 9.67155 84.1533 9.7026 84.1533 9.7026L85.0898 13.1491C85.121 13.1491 85.1522 13.1802 85.1522 13.1802Z" fill="white"/>
<path d="M107.628 7.99486L108.877 3.39952C108.908 3.33742 108.97 3.33742 109.002 3.39952L110.25 7.99486C110.25 8.02591 110.219 8.08801 110.188 8.08801H107.69C107.659 8.05696 107.628 8.02591 107.628 7.99486ZM111.717 13.1802H113.278C113.309 13.1802 113.341 13.1491 113.341 13.087L110.125 1.28813C110.125 1.25708 110.094 1.25708 110.063 1.25708H107.815C107.784 1.25708 107.753 1.28813 107.753 1.28813L104.538 13.087C104.538 13.1181 104.569 13.1802 104.6 13.1802H106.161C106.192 13.1802 106.223 13.1491 106.223 13.1491L107.16 9.7026C107.16 9.67155 107.191 9.67155 107.222 9.67155H110.656C110.687 9.67155 110.718 9.7026 110.718 9.7026L111.655 13.1491C111.686 13.1491 111.686 13.1802 111.717 13.1802Z" fill="white"/>
<path d="M57.0571 11.4402V7.77629C57.0571 7.74524 57.0883 7.7142 57.1195 7.7142H61.6771C61.7084 7.7142 61.7396 7.68315 61.7396 7.6521V6.19277C61.7396 6.16172 61.7084 6.13066 61.6771 6.13066H57.1195C57.0883 6.13066 57.0571 6.09961 57.0571 6.06856V2.96359C57.0571 2.93254 57.0883 2.9015 57.1195 2.9015H62.3015C62.3327 2.9015 62.3639 2.87045 62.3639 2.8394V1.38007C62.3639 1.34902 62.3327 1.31796 62.3015 1.31796H55.2778C55.2465 1.31796 55.2153 1.34902 55.2153 1.38007V13.1168C55.2153 13.1479 55.2465 13.1789 55.2778 13.1789H62.52C62.5512 13.1789 62.5824 13.1479 62.5824 13.1168V11.5644C62.5824 11.5333 62.5512 11.5023 62.52 11.5023H57.1195C57.0883 11.5023 57.0571 11.4712 57.0571 11.4402Z" fill="white"/>
<path d="M139.001 13.0858L133.07 7.00005C133.038 6.969 133.038 6.93796 133.07 6.90691L138.408 1.41111C138.439 1.38006 138.408 1.31796 138.376 1.31796H136.191C136.16 1.31796 136.16 1.31796 136.16 1.34901L131.634 6.00647C131.602 6.03752 131.54 6.00646 131.54 5.97542V1.38007C131.54 1.34902 131.509 1.31796 131.478 1.31796H129.761C129.729 1.31796 129.698 1.34902 129.698 1.38007V13.1479C129.698 13.1789 129.729 13.21 129.761 13.21H131.478C131.509 13.21 131.54 13.1789 131.54 13.1479V7.96259C131.54 7.90049 131.602 7.86944 131.634 7.93154L136.753 13.1789L136.784 13.21H138.97C139.001 13.1789 139.032 13.1168 139.001 13.0858Z" fill="white"/>
<path d="M47.8315 21.1555C47.8315 21.5591 47.7378 21.9628 47.6129 22.3043C47.4569 22.6459 47.2383 22.9564 46.9886 23.2358C46.7389 23.5153 46.3955 23.7016 45.9897 23.8568C45.5839 24.0121 45.1781 24.0742 44.6786 24.0742H43.0553V27.3965H41.8379V18.2368H44.6474C45.1156 18.2368 45.5527 18.33 45.9585 18.4542C46.3643 18.6094 46.6764 18.8268 46.9574 19.0752C47.2383 19.3236 47.4569 19.6341 47.5817 20.0067C47.769 20.3482 47.8315 20.7208 47.8315 21.1555ZM46.6452 21.1555C46.6452 20.9071 46.5828 20.6587 46.5204 20.4413C46.4579 20.224 46.3018 20.0377 46.1458 19.8824C45.9585 19.7272 45.7712 19.603 45.5214 19.5099C45.2717 19.4167 44.9908 19.3546 44.6786 19.3546H43.0553V22.9564H44.6786C44.9908 22.9564 45.2717 22.8943 45.5214 22.8011C45.7712 22.708 45.9585 22.5838 46.1458 22.4285C46.3331 22.2733 46.4579 22.087 46.5204 21.8696C46.614 21.6523 46.6452 21.4039 46.6452 21.1555Z" fill="white"/>
<path d="M51.4832 27.5212C50.9837 27.5212 50.5467 27.4281 50.1096 27.2418C49.6726 27.0555 49.3292 26.8381 49.0483 26.5276C48.7361 26.2171 48.5176 25.8756 48.3303 25.4719C48.143 25.0683 48.0806 24.6336 48.0806 24.1679C48.0806 23.7021 48.1742 23.2674 48.3303 22.8638C48.5176 22.4601 48.7361 22.0875 49.0483 21.8081C49.3604 21.4976 49.7038 21.2802 50.1096 21.0939C50.5155 20.9076 50.9837 20.8145 51.4832 20.8145C51.9826 20.8145 52.4197 20.9076 52.8255 21.0939C53.2313 21.2802 53.6059 21.4976 53.8868 21.8081C54.199 22.1186 54.4175 22.4601 54.6048 22.8638C54.7921 23.2674 54.8545 23.7021 54.8545 24.1679C54.8545 24.6336 54.7609 25.0683 54.6048 25.4719C54.4175 25.8756 54.199 26.2482 53.8868 26.5276C53.5747 26.8381 53.2313 27.0555 52.8255 27.2418C52.4197 27.4281 51.9826 27.5212 51.4832 27.5212ZM51.4832 26.4966C51.8265 26.4966 52.1387 26.4345 52.3884 26.3103C52.6694 26.1861 52.8879 26.0308 53.1064 25.8135C53.2937 25.5961 53.4498 25.3477 53.5747 25.0683C53.6995 24.7888 53.7307 24.4784 53.7307 24.1679C53.7307 23.8574 53.6683 23.5469 53.5747 23.2674C53.4498 22.988 53.3249 22.7396 53.1064 22.5222C52.9191 22.3049 52.6694 22.1496 52.3884 22.0254C52.1075 21.9012 51.7953 21.8391 51.4832 21.8391C51.171 21.8391 50.8276 21.9012 50.5779 22.0254C50.2969 22.1496 50.0472 22.3049 49.8599 22.5222C49.6414 22.7396 49.5165 22.988 49.3917 23.2674C49.2668 23.5469 49.2356 23.8574 49.2356 24.1679C49.2356 24.5094 49.298 24.7888 49.3917 25.0683C49.5165 25.3477 49.6726 25.5961 49.8599 25.8135C50.0784 26.0308 50.2969 26.1861 50.5779 26.3103C50.8588 26.4345 51.1398 26.4966 51.4832 26.4966Z" fill="white"/>
<path d="M55.8532 20.938H56.977V22.2111C57.0395 21.9937 57.1331 21.8074 57.258 21.6522C57.3828 21.4969 57.5389 21.3417 57.695 21.2485C57.8511 21.1243 58.0384 21.0312 58.2257 21.0001C58.413 20.938 58.6003 20.907 58.7876 20.907C58.9749 20.907 59.131 20.938 59.2871 20.9691V22.1179C59.1622 22.0558 59.0685 22.0248 58.9749 22.0248C58.8812 21.9937 58.7564 21.9937 58.6627 21.9937C58.4442 21.9937 58.2569 22.0558 58.0384 22.149C57.8199 22.2421 57.6638 22.3663 57.5077 22.5526C57.3516 22.7389 57.2268 22.9563 57.1019 23.2357C56.977 23.5152 56.9458 23.8567 56.9458 24.2293V27.4274H55.822V20.938H55.8532Z" fill="white"/>
<path d="M63.283 27.4582C63.0021 27.4582 62.7211 27.3961 62.5026 27.334C62.2529 27.2408 62.0344 27.1166 61.8783 26.9614C61.691 26.8061 61.5661 26.5888 61.4725 26.3404C61.3788 26.092 61.3164 25.8125 61.3164 25.471V21.9313H59.9429V20.9067H61.3164V19.1058H62.4402V20.9067H64.3132V21.9313H62.4402V25.3157C62.4402 25.7194 62.5338 25.9988 62.7211 26.1851C62.9084 26.3404 63.1582 26.4335 63.5328 26.4335C63.6889 26.4335 63.8137 26.4025 63.9698 26.4025C64.1259 26.3714 64.2507 26.3404 64.3444 26.3093V27.3029C64.1883 27.365 64.0634 27.3961 63.8761 27.4271C63.6576 27.4271 63.4703 27.4582 63.283 27.4582Z" fill="white"/>
<path d="M66.2483 21.9627H64.8748V20.9381H66.2483V19.634C66.2483 19.2925 66.3107 19.013 66.4044 18.7646C66.498 18.5162 66.6541 18.2989 66.8102 18.1436C66.9975 17.9573 67.1848 17.8331 67.4345 17.771C67.6842 17.6779 67.934 17.6468 68.2149 17.6468C68.4334 17.6468 68.5895 17.6779 68.7456 17.7089C68.9017 17.74 69.0578 17.8021 69.2139 17.8331V18.7957C69.089 18.7336 68.9641 18.7025 68.8393 18.7025C68.6832 18.6715 68.5583 18.6715 68.4022 18.6715C68.0276 18.6715 67.7779 18.7646 67.5906 18.9199C67.4033 19.0751 67.3096 19.3546 67.3096 19.7892V20.9691H69.1826V21.9938H67.3096V27.4275H66.1859L66.2483 21.9627Z" fill="white"/>
<path d="M73.1797 27.5212C72.6802 27.5212 72.2432 27.4281 71.8062 27.2418C71.3691 27.0555 71.0258 26.8381 70.7448 26.5276C70.4326 26.2171 70.2141 25.8756 70.0268 25.4719C69.8395 25.0683 69.7771 24.6336 69.7771 24.1679C69.7771 23.7021 69.8707 23.2674 70.0268 22.8638C70.2141 22.4601 70.4326 22.0875 70.7448 21.8081C71.057 21.4976 71.4004 21.2802 71.8062 21.0939C72.212 20.9076 72.6802 20.8145 73.1797 20.8145C73.6792 20.8145 74.1162 20.9076 74.522 21.0939C74.9278 21.2802 75.3024 21.4976 75.5834 21.8081C75.8955 22.1186 76.114 22.4601 76.3013 22.8638C76.4886 23.2674 76.5511 23.7021 76.5511 24.1679C76.5511 24.6336 76.4574 25.0683 76.3013 25.4719C76.1453 25.8756 75.8955 26.2482 75.5834 26.5276C75.2712 26.8071 74.9278 27.0555 74.522 27.2418C74.1162 27.4281 73.6792 27.5212 73.1797 27.5212ZM73.1797 26.4966C73.5231 26.4966 73.8352 26.4345 74.085 26.3103C74.3659 26.1861 74.5844 26.0308 74.803 25.8135C74.9903 25.5961 75.1463 25.3477 75.2712 25.0683C75.3961 24.7888 75.4273 24.4784 75.4273 24.1679C75.4273 23.8574 75.3649 23.5469 75.2712 23.2674C75.1463 22.988 75.0215 22.7396 74.803 22.5222C74.6157 22.3049 74.3659 22.1496 74.085 22.0254C73.804 21.9012 73.4919 21.8391 73.1797 21.8391C72.8675 21.8391 72.5242 21.9012 72.2744 22.0254C71.9935 22.1496 71.7437 22.3049 71.5564 22.5222C71.3379 22.7396 71.2131 22.988 71.0882 23.2674C70.9633 23.5469 70.9321 23.8574 70.9321 24.1679C70.9321 24.5094 70.9945 24.7888 71.0882 25.0683C71.2131 25.3477 71.3691 25.5961 71.5564 25.8135C71.775 26.0308 71.9935 26.1861 72.2744 26.3103C72.5554 26.4345 72.8363 26.4966 73.1797 26.4966Z" fill="white"/>
<path d="M77.8301 17.7096H78.9539V27.3971H77.8301V17.7096Z" fill="white"/>
<path d="M81.3265 19.1992C81.108 19.1992 80.9207 19.106 80.7646 18.9818C80.6085 18.8266 80.5149 18.6403 80.5149 18.423C80.5149 18.2056 80.6085 18.0193 80.7646 17.8641C80.9207 17.7088 81.108 17.6157 81.3265 17.6157C81.545 17.6157 81.7323 17.7088 81.8884 17.8641C82.0445 18.0193 82.1069 18.2056 82.1069 18.423C82.1069 18.6403 82.0133 18.8266 81.8884 18.9818C81.7323 19.1371 81.5763 19.1992 81.3265 19.1992ZM80.7646 20.938H81.8884V27.3963H80.7646V20.938Z" fill="white"/>
<path d="M86.5706 27.5212C86.0711 27.5212 85.6341 27.4281 85.197 27.2418C84.76 27.0555 84.4166 26.8381 84.1357 26.5276C83.8235 26.2171 83.605 25.8756 83.4177 25.4719C83.2304 25.0683 83.168 24.6336 83.168 24.1679C83.168 23.7021 83.2616 23.2674 83.4177 22.8638C83.605 22.4601 83.8235 22.0875 84.1357 21.8081C84.4478 21.4976 84.7912 21.2802 85.197 21.0939C85.6029 20.9076 86.0711 20.8145 86.5706 20.8145C87.07 20.8145 87.5071 20.9076 87.9129 21.0939C88.3187 21.2802 88.6933 21.4976 88.9742 21.8081C89.2864 22.1186 89.5049 22.4601 89.6922 22.8638C89.8795 23.2674 89.942 23.7021 89.942 24.1679C89.942 24.6336 89.8483 25.0683 89.6922 25.4719C89.5361 25.8756 89.2864 26.2482 88.9742 26.5276C88.6621 26.8381 88.3187 27.0555 87.9129 27.2418C87.5071 27.4281 87.0388 27.5212 86.5706 27.5212ZM86.5706 26.4966C86.9139 26.4966 87.2261 26.4345 87.4758 26.3103C87.7568 26.1861 87.9753 26.0308 88.1938 25.8135C88.3811 25.5961 88.5372 25.3477 88.6621 25.0683C88.7869 24.7888 88.8182 24.4784 88.8182 24.1679C88.8182 23.8574 88.7557 23.5469 88.6621 23.2674C88.5372 22.988 88.4123 22.7396 88.1938 22.5222C88.0065 22.3049 87.7568 22.1496 87.4758 22.0254C87.1949 21.9012 86.8827 21.8391 86.5706 21.8391C86.2584 21.8391 85.915 21.9012 85.6653 22.0254C85.3843 22.1496 85.1346 22.3049 84.9473 22.5222C84.7288 22.7396 84.6039 22.988 84.4791 23.2674C84.3542 23.5469 84.323 23.8574 84.323 24.1679C84.323 24.5094 84.3854 24.7888 84.4791 25.0683C84.6039 25.3477 84.76 25.5961 84.9473 25.8135C85.1658 26.0308 85.3843 26.1861 85.6653 26.3103C85.915 26.4345 86.2272 26.4966 86.5706 26.4966Z" fill="white"/>
</svg>
