<svg width="128" height="128">
  <style>
    .orange-icon { fill:#fa0; fill-opacity:1; stroke:none }
  </style>
  <g transform="translate(-46.78328,-570.69332)">
    <g transform="matrix(0.36866748,0,0,0.36866748,7.7551537,456.71944)" class="orange-icon">
      <path d="m 374.93731,485.15661 0,0 z m 0,0 -95.44898,-84.53005 -95.50394,84.56669 0,120.84098 c 0,3.12083 2.52183,5.62434 5.64267,5.62434 l 59.68767,0 0,-52.98243 c 0,-3.12085 2.50351,-5.64266 5.62434,-5.64266 l 49.04356,0 c 3.12081,0 5.62434,2.52183 5.62434,5.64266 l 0,52.98243 59.70599,0 c 3.12083,0 5.62436,-2.5035 5.62435,-5.62434 l 0,-120.87762 z m -190.95292,0.0366 0,0 z" class="orange-icon"></path>
      <path d="m 278.93445,354.3665 -135.45241,119.9373 14.26836,16.09692 121.73816,-107.80227 121.71045,107.80227 14.24065,-16.09692 -135.4247,-119.9373 -0.5264,0.60952 -0.55411,-0.60952 z" class="orange-icon"></path>
      <path d="m 183.98439,371.63102 34.33756,0 -0.29922,20.33769 -34.03834,30.74989 0,-51.08758 z" class="orange-icon"></path>
    </g>
  </g>
</svg>
