<svg id="Слой_1" data-name="Слой 1" xmlns="http://www.w3.org/2000/svg" viewBox="0 0 512 512">
  <defs>
    <style>
      .cls-1 {
        fill: #fff;
      }
    </style>
  </defs>
  <title>table-of-contents-white</title>
  <path class="cls-1" d="M231.43,0V36.57H85.36A36.78,36.78,0,0,0,48.57,73.36V438.64a36.78,36.78,0,0,0,36.79,36.79H450.64a36.78,36.78,0,0,0,36.79-36.79V329.14H524v109.5A73.33,73.33,0,0,1,450.71,512H85.36A73.33,73.33,0,0,1,12,438.71V73.36A73.33,73.33,0,0,1,85.36,0ZM470.86,49.44a18.43,18.43,0,0,1,25.82.08,18.15,18.15,0,0,1,0,25.78L160.48,411.57a18.42,18.42,0,0,1-25.78,0,18.18,18.18,0,0,1-.19-25.71.57.57,0,0,0,.11-.11L470.9,49.44Z" transform="translate(-12)"/>
</svg>
