<?xml version="1.0" standalone="no"?><!DOCTYPE svg PUBLIC "-//W3C//DTD SVG 1.1//EN" "http://www.w3.org/Graphics/SVG/1.1/DTD/svg11.dtd"><svg class="icon" height="512" viewBox="0 0 1024 1024" version="1.1" xmlns="http://www.w3.org/2000/svg"><path d="M438.857143 0v73.142857H146.724571C106.057143 73.142857 73.142857 106.057143 73.142857 146.724571v730.550858C73.142857 917.942857 106.057143 950.857143 146.724571 950.857143h730.550858C917.942857 950.857143 950.857143 917.942857 950.857143 877.275429V658.285714h73.142857v218.989715A146.651429 146.651429 0 0 1 877.275429 1024H146.724571A146.651429 146.651429 0 0 1 0 877.275429V146.724571C0 65.682286 65.609143 0 146.724571 0H438.857143z m478.866286 98.889143a36.864 36.864 0 0 1 51.638857 0.146286c14.262857 14.262857 14.482286 37.229714 0.073143 51.565714L296.96 823.149714a36.864 36.864 0 0 1-51.565714-0.073143 36.352 36.352 0 0 1-0.146286-51.638857l672.548571-672.548571z" fill="#506D88" /></svg>