<?xml version="1.0" encoding="iso-8859-1"?>
<svg width="300" fill="#ddd" version="1.1" xmlns="http://www.w3.org/2000/svg" xmlns:xlink="http://www.w3.org/1999/xlink"
	 viewBox="0 0 489.962 489.962" xml:space="preserve">
	<path d="M486.8,248.733c-15.9-14.8-22.6-38.9-16.3-59.9c0.8-2.3,23.9-54.7-17.5-71.5c-31.7-7.8-52.5,5.4-57.9,10.9l-2-4.2 l-36.6,21.8l-3.5-9.4c0,0-280.4,1.9-335.6,201.8h365.1l29.2-45.5l-44.4-118.8l40.4-23.3l-2.3-4.8c1.2-0.8,13.4-15.2,41.2-10.1
				c20,5.6,6.2,44.7,5.4,47.8c-8.2,28,0.4,59.9,21.8,79.7c1.9,1.9,7.8,5.1,13.6-0.4C491.1,258.433,490.7,252.533,486.8,248.733z M186.6,263.433c21-76.2,127.9-77,127.9-77l28.8,77H186.6z" />
</svg>
