<?xml version="1.0" encoding="utf-8"?>
<svg version="1.0" width="512.000000pt" height="512.000000pt" viewBox="0 0 512.000000 512.000000" preserveAspectRatio="xMidYMid meet" xmlns="http://www.w3.org/2000/svg">
  <g transform="matrix(0.083459, 0, 0, -0.083459, -2354.665771, -2352.927246)" fill="#000000" stroke="none" style="transform-origin: 2550.49px 2595.2px; filter: none;">
    <path d="M2452 4975 c-160 -45 -265 -138 -298 -265 -20 -80 -14 -162 17 -227&#10;41 -88 478 -505 789 -753 38 -30 69 -58 69 -62 1 -3 -13 -15 -30 -25 l-30 -20&#10;-182 100 c-537 293 -576 310 -792 344 -223 34 -534 -11 -720 -104 -57 -29&#10;-305 -196 -575 -387 -320 -227 -415 -351 -427 -556 -8 -132 27 -243 113 -355&#10;35 -47 40 -62 89 -300 57 -272 78 -342 124 -413 51 -80 115 -132 481 -394 455&#10;-326 991 -712 1240 -893 506 -368 643 -436 930 -460 98 -9 227 10 317 45 171&#10;66 316 189 678 575 309 329 324 357 391 730 42 234 49 264 76 300 45 61 95&#10;173 108 243 18 90 8 252 -19 323 -53 138 -191 294 -359 405 -51 34 -306 176&#10;-567 315 l-473 254 99 103 c108 112 176 200 343 445 109 160 120 188 77 202&#10;-11 3 -92 -27 -200 -75 -100 -44 -184 -80 -187 -80 -5 0 -78 112 -290 445&#10;-190 300 -201 315 -266 383 -64 65 -142 118 -216 145 -74 27 -234 33 -310 12z&#10;m320 -102 c117 -55 194 -142 363 -408 82 -129 129 -210 106 -184 -81 93 -130&#10;91 -302 -13 -214 -128 -212 -160 17 -377 156 -147 254 -190 359 -157 97 30&#10;159 107 149 182 -4 27 -4 27 5 7 6 -13 16 -23 22 -23 20 0 2 -81 -28 -124 -51&#10;-74 -152 -104 -254 -76 -53 15 -140 75 -261 181 -59 52 -153 134 -210 183&#10;-139 119 -445 429 -486 490 -21 33 -32 61 -32 85 0 78 74 181 162 227 68 35&#10;112 44 218 41 94 -2 112 -6 172 -34z m-229 -670 c73 -70 116 -115 97 -98 -65&#10;55 -331 320 -362 360 -17 22 6 1 51 -47 45 -48 141 -145 214 -215z m641 96&#10;c29 -23 128 -162 201 -284 66 -110 68 -152 7 -205 -82 -73 -180 -73 -297 1&#10;-65 41 -273 251 -281 285 -12 46 11 69 138 147 138 84 182 95 232 56z m-374&#10;-336 c0 -7 -98 76 -107 90 -4 7 19 -10 50 -37 31 -27 57 -51 57 -53z m862 -50&#10;c-84 -93 -147 -153 -184 -176 l-27 -17 30 48 c16 26 33 67 37 92 l7 44 95 42&#10;c52 24 99 43 104 43 4 1 -23 -34 -62 -76z m-1572 14 c52 -14 113 -32 134 -41&#10;44 -18 618 -328 635 -343 3 -2 -2 -11 -11 -19 -14 -14 -21 -13 -79 19 -422&#10;230 -510 274 -594 301 -141 44 -192 51 -380 51 -165 0 -189 -2 -290 -28 -157&#10;-41 -258 -95 -531 -284 -349 -243 -444 -315 -508 -383 -58 -63 -68 -69 -39&#10;-22 38 61 109 136 186 196 147 114 651 458 712 486 78 36 185 68 282 86 122&#10;21 363 12 483 -19z m14 -111 c54 -15 120 -37 145 -49 89 -43 521 -280 526&#10;-288 3 -4 -2 -12 -12 -17 -14 -7 -69 18 -233 105 -306 162 -343 179 -453 208&#10;-192 49 -349 55 -504 19 -80 -18 -111 -34 -327 -163 -186 -111 -213 -131 -424&#10;-299 -171 -137 -213 -183 -261 -282 -32 -67 -36 -84 -36 -155 0 -70 4 -87 30&#10;-134 64 -116 179 -204 852 -652 274 -182 503 -336 508 -342 14 -15 24 -21&#10;-666 429 -339 221 -634 413 -655 427 -101 64 -198 200 -211 293 -7 55 28 142&#10;87 215 63 78 171 162 510 396 349 241 379 257 575 299 98 21 129 23 280 20&#10;143 -3 186 -8 269 -30z m1540 -13 c-105 -142 -165 -211 -258 -300 -58 -56&#10;-106 -107 -106 -114 0 -14 -79 -89 -94 -89 -5 0 -18 -9 -30 -20 -37 -36 -85&#10;-72 -516 -390 -234 -172 -434 -320 -444 -329 -18 -15 -19 -15 -12 9 5 14 17&#10;66 28 115 38 170 57 222 108 298 54 80 204 234 315 322 124 98 378 216 581&#10;271 175 46 279 100 383 200 36 35 68 63 70 64 2 0 -9 -17 -25 -37z m-1699 -53&#10;c66 -11 148 -28 183 -39 52 -16 475 -231 549 -279 22 -14 20 -16 -76 -93 -171&#10;-136 -310 -288 -368 -403 -13 -27 -38 -112 -55 -190 -18 -85 -40 -160 -56&#10;-190 -33 -61 -99 -119 -184 -162 -205 -103 -427 -100 -762 10 -249 82 -387&#10;164 -522 309 -73 77 -88 116 -81 204 11 139 90 235 378 455 154 118 427 291&#10;544 344 59 27 184 52 270 53 33 1 114 -8 180 -19z m1222 -71 c15 -6 57 -14 93&#10;-17 l65 -7 -110 -29 c-60 -16 -125 -36 -144 -43 -51 -21 -47 -10 9 31 31 23&#10;50 43 50 56 0 23 0 23 37 9z m673 -655 c234 -125 466 -255 515 -287 125 -84&#10;262 -223 305 -310 18 -37 31 -69 28 -72 -2 -2 -24 23 -48 56 -51 70 -151 158&#10;-265 233 -44 29 -269 156 -500 281 -231 125 -473 257 -537 292 l-118 64 28 24&#10;27 24 70 -38 c39 -21 261 -141 495 -267z m-80 -92 c289 -157 554 -304 590&#10;-328 199 -131 333 -297 348 -429 6 -60 -30 -162 -83 -233 -23 -31 -190 -206&#10;-371 -388 l-329 -331 -100 -51 c-174 -88 -352 -121 -556 -102 -101 10 -262 45&#10;-319 70 l-25 11 25 -6 c134 -30 203 -37 321 -31 276 13 488 82 689 224 83 59&#10;281 258 387 389 139 173 195 297 194 433 0 186 -102 340 -307 465 -231 140&#10;-555 326 -886 510 -98 53 -175 101 -172 106 6 11 -30 30 594 -309z m-367 117&#10;c486 -271 828 -472 905 -535 144 -117 209 -265 181 -417 -10 -60 -71 -207 -84&#10;-207 -4 0 -44 35 -89 77 -44 42 -124 104 -176 138 -52 34 -333 189 -625 345&#10;-291 155 -594 317 -672 359 -79 42 -143 78 -142 81 0 7 412 309 422 309 4 1&#10;130 -67 280 -150z m-44 -571 c383 -204 729 -394 770 -421 72 -48 241 -201 241&#10;-218 0 -16 -119 -157 -231 -273 -281 -294 -525 -400 -914 -400 -192 0 -260 13&#10;-402 79 -66 30 -1708 1113 -1700 1121 1 1 52 -13 113 -31 367 -111 675 -72&#10;873 111 31 28 115 94 186 146 72 52 179 132 239 176 60 45 114 82 119 82 6 0&#10;323 -167 706 -372z m-2834 142 c10 -11 16 -20 13 -20 -3 0 -13 9 -23 20 -10&#10;11 -16 20 -13 20 3 0 13 -9 23 -20z m136 -92 l24 -20 -31 17 c-17 10 -41 26&#10;-55 37 l-24 20 31 -17 c17 -10 41 -26 55 -37z m966 -694 c708 -462 1125 -728&#10;1174 -749 193 -83 373 -120 579 -119 123 0 162 4 254 27 120 30 240 82 337&#10;147 39 26 175 155 342 324 251 253 278 278 273 246 -75 -419 -81 -439 -159&#10;-558 -49 -72 -288 -333 -507 -552 -250 -250 -423 -331 -675 -316 -133 8 -226&#10;35 -370 107 -136 67 -290 171 -262 177 21 4 21 10 -2 305 -17 217 -25 258 -50&#10;243 -15 -9 -13 -68 7 -328 l17 -216 -65 46 c-126 89 -121 84 -105 96 13 10 13&#10;43 -5 271 -11 142 -24 263 -29 268 -6 6 -17 7 -26 3 -13 -5 -15 -15 -11 -58&#10;10 -88 37 -470 34 -473 -2 -2 -43 26 -93 62 -84 61 -90 67 -87 96 2 18 -4 138&#10;-13 267 -18 237 -28 281 -56 253 -9 -9 -7 -76 8 -265 11 -139 19 -254 19 -255&#10;-1 -1 -43 28 -93 64 -74 53 -90 68 -79 77 13 9 12 47 -5 266 -15 185 -24 259&#10;-35 270 -33 34 -36 -2 -15 -265 11 -142 20 -260 18 -261 -1 -1 -36 22 -77 53&#10;-59 42 -74 59 -72 76 3 23 -24 421 -34 495 -4 33 -9 42 -25 42 -24 0 -24 -17&#10;-3 -298 9 -117 14 -215 12 -218 -9 -9 -158 100 -154 113 3 6 -4 119 -14 250&#10;-11 131 -20 248 -20 261 0 25 -26 40 -41 25 -6 -6 -2 -100 10 -258 11 -137 19&#10;-251 17 -252 -1 -2 -40 25 -86 58 -52 38 -79 64 -71 68 9 6 7 70 -9 266 -11&#10;141 -23 261 -26 266 -7 11 -31 12 -38 1 -3 -5 4 -120 15 -257 11 -137 18 -252&#10;17 -256 -2 -4 -37 18 -78 48 -50 37 -74 61 -71 72 2 9 -5 128 -15 264 -18 249&#10;-28 297 -55 270 -9 -9 -8 -65 6 -258 10 -135 16 -248 13 -250 -2 -3 -32 15&#10;-66 39 -34 23 -59 45 -56 48 3 3 -4 124 -15 269 -20 262 -28 298 -57 266 -9&#10;-9 -7 -71 7 -242 10 -126 18 -238 19 -248 0 -14 -21 -4 -91 45 -231 159 -260&#10;206 -329 544 -41 200 -43 214 -36 214 3 0 499 -322 1103 -716z m-736 544 l24&#10;-20 -31 17 c-17 10 -41 26 -55 37 l-24 20 31 -17 c17 -10 41 -26 55 -37z m230&#10;-150 l24 -20 -31 17 c-17 10 -41 26 -55 37 l-24 20 31 -17 c17 -10 41 -26 55&#10;-37z m230 -150 l24 -20 -31 17 c-17 10 -41 26 -55 37 l-24 20 31 -17 c17 -10&#10;41 -26 55 -37z m234 -153 l20 -16 -20 10 c-11 5 -29 17 -40 26 l-20 16 20 -10&#10;c11 -5 29 -17 40 -26z m3025 -88 c0 -1 -57 -58 -127 -127 l-128 -125 125 128&#10;c116 118 130 132 130 124z m-2795 -62 l20 -16 -20 10 c-11 5 -29 17 -40 26&#10;l-20 16 20 -10 c11 -5 29 -17 40 -26z m230 -150 l20 -16 -20 10 c-11 5 -29 17&#10;-40 26 l-20 16 20 -10 c11 -5 29 -17 40 -26z m2150 -216 c-150 -150 -257 -241&#10;-315 -268 -21 -10 -22 -9 -6 1 97 66 194 149 321 277 82 83 152 151 155 151 3&#10;0 -67 -72 -155 -161z m-1920 66 l20 -16 -20 10 c-11 5 -29 17 -40 26 l-20 16&#10;20 -10 c11 -5 29 -17 40 -26z m230 -150 l20 -16 -20 10 c-11 5 -29 17 -40 26&#10;l-20 16 20 -10 c11 -5 29 -17 40 -26z m185 -121 c0 -2 -9 0 -20 6 -11 6 -20&#10;13 -20 16 0 2 9 0 20 -6 11 -6 20 -13 20 -16z m106 -62 c-5 -4 -66 26 -66 33&#10;0 3 16 -3 35 -12 19 -9 33 -18 31 -21z m984 -52 c-8 -5 -19 -10 -25 -10 -5 0&#10;-3 5 5 10 8 5 20 10 25 10 6 0 3 -5 -5 -10z m-65 -25 c-16 -8 -37 -14 -45 -14&#10;-8 0 1 7 20 14 46 18 64 17 25 0z m-68 -21 c-3 -3 -12 -4 -19 -1 -8 3 -5 6 6&#10;6 11 1 17 -2 13 -5z m-500 -10 c-3 -3 -12 -4 -19 -1 -8 3 -5 6 6 6 11 1 17 -2&#10;13 -5z m456 -1 c-7 -2 -19 -2 -25 0 -7 3 -2 5 12 5 14 0 19 -2 13 -5z m-386&#10;-9 c-3 -3 -12 -4 -19 -1 -8 3 -5 6 6 6 11 1 17 -2 13 -5z m331 -1 c-10 -2 -26&#10;-2 -35 0 -10 3 -2 5 17 5 19 0 27 -2 18 -5z m-230 -10 c-10 -2 -26 -2 -35 0&#10;-10 3 -2 5 17 5 19 0 27 -2 18 -5z m135 0 c-13 -2 -35 -2 -50 0 -16 2 -5 4 22&#10;4 28 0 40 -2 28 -4z"/>
    <path d="M2480 4867 c-89 -37 -168 -95 -191 -139 -25 -50 -27 -124 -3 -174 10&#10;-22 63 -84 118 -140 81 -80 116 -108 178 -138 92 -46 181 -58 241 -32 70 29&#10;205 124 221 155 24 45 20 109 -9 168 -59 118 -225 274 -327 307 -72 23 -161&#10;20 -228 -7z m259 -38 c85 -43 217 -174 259 -259 42 -83 43 -140 5 -179 -16&#10;-15 -64 -49 -108 -76 -77 -48 -82 -50 -155 -50 -65 0 -85 5 -140 32 -110 54&#10;-277 221 -301 301 -15 50 2 111 42 151 16 17 66 48 110 71 73 36 89 40 154 40&#10;60 0 82 -5 134 -31z"/>
  </g>
</svg>