<?xml version="1.0" standalone="no"?>
<!DOCTYPE svg PUBLIC "-//W3C//DTD SVG 20010904//EN"
 "http://www.w3.org/TR/2001/REC-SVG-20010904/DTD/svg10.dtd">
<svg version="1.0" xmlns="http://www.w3.org/2000/svg"
 width="181.000000pt" height="269.000000pt" viewBox="0 0 181.000000 269.000000"
 preserveAspectRatio="xMidYMid meet">

<g transform="translate(0.000000,269.000000) scale(0.100000,-0.100000)"
fill="#000000" stroke="none">
<path d="M1029 2541 c-44 -15 -69 -31 -163 -110 l-93 -78 -39 20 c-49 26 -131
28 -167 4 -79 -52 -93 -183 -32 -301 14 -27 24 -50 23 -51 -2 -1 -34 -7 -71
-14 -86 -15 -170 -46 -204 -75 l-26 -22 2 -745 c2 -637 4 -747 17 -767 66
-101 307 -165 629 -166 329 0 553 52 647 151 l27 28 2 749 2 750 -26 22 c-39
33 -127 63 -250 84 -60 10 -113 22 -116 27 -4 4 -15 29 -25 54 -20 56 -36 71
-110 107 l-57 27 130 43 c147 49 191 79 191 131 0 43 -49 95 -108 115 -57 20
-148 28 -183 17z m184 -38 c41 -17 87 -65 87 -92 0 -28 -47 -68 -105 -90 -30
-11 -109 -37 -176 -57 -116 -35 -125 -36 -162 -23 -22 8 -49 26 -60 41 -19 25
-19 28 -4 51 16 25 136 127 190 162 57 37 149 40 230 8z m-485 -150 c22 -11
32 -22 32 -38 0 -33 44 -82 86 -95 20 -7 55 -10 78 -7 53 8 167 -33 196 -70
11 -15 30 -58 41 -97 35 -120 71 -198 111 -238 l38 -38 -79 0 c-187 0 -468
108 -609 235 -70 63 -102 130 -102 214 0 136 86 191 208 134z m-123 -363 c10
-11 16 -20 14 -20 -40 -1 -255 -55 -292 -74 -54 -26 -68 -26 -51 2 22 37 189
98 305 111 3 1 14 -8 24 -19z m795 -11 c82 -22 147 -54 164 -81 17 -28 3 -29
-49 -3 -28 14 -66 27 -85 30 -22 4 -14 -2 25 -15 33 -11 71 -28 84 -39 l25
-19 -40 -20 c-59 -30 -151 -54 -176 -47 -35 11 -87 65 -114 117 -13 26 -24 50
-24 52 0 3 21 4 48 1 l47 -4 -52 11 c-43 9 -53 15 -53 31 0 18 4 19 62 13 34
-3 96 -15 138 -27z m-718 -48 c107 -72 356 -171 432 -171 17 0 18 -2 6 -10
-20 -13 -322 -13 -451 1 -135 13 -268 42 -335 73 -30 14 -54 27 -54 30 0 12
74 47 131 62 59 15 188 41 216 43 7 1 31 -12 55 -28z m-352 -127 c118 -55 323
-84 590 -84 304 0 490 32 643 108 4 2 4 -3 1 -12 -13 -35 -147 -80 -319 -108
-123 -20 -553 -17 -680 5 -134 23 -246 61 -276 94 -13 14 -19 24 -14 21 6 -2
30 -13 55 -24z m1218 -172 c-10 -12 -10 -14 0 -8 9 5 12 -4 12 -37 0 -43 -1
-44 -50 -67 -27 -13 -48 -25 -46 -27 2 -3 22 5 45 16 22 12 42 21 45 21 2 0 5
-208 5 -462 0 -419 -2 -465 -17 -483 -16 -19 -16 -19 1 -6 16 12 17 9 17 -46
0 -73 -19 -102 -91 -139 -134 -67 -342 -99 -607 -91 -272 8 -466 55 -548 132
-30 29 -34 38 -34 85 0 38 3 51 13 47 41 -17 48 -17 20 1 l-32 21 1 273 c0
195 3 275 11 280 9 6 9 8 0 8 -8 0 -11 50 -11 185 0 121 3 185 10 185 7 0 7 4
0 13 -13 15 -16 237 -3 237 5 0 28 -9 53 -20 246 -108 949 -106 1166 4 l47 24
3 -65 c2 -42 -2 -70 -10 -81z m-1073 -1298 c120 -38 249 -54 440 -54 280 -1
496 42 606 121 35 24 38 18 7 -12 -52 -49 -192 -97 -353 -120 -120 -17 -421
-15 -540 5 -163 27 -276 69 -324 120 l-25 26 55 -30 c30 -16 90 -42 134 -56z"/>
<path d="M1041 2497 c-19 -6 -43 -25 -55 -40 -19 -26 -19 -30 -6 -55 22 -39
75 -62 143 -62 104 0 166 44 133 96 -35 52 -150 85 -215 61z m170 -48 c40 -28
38 -56 -6 -75 -70 -29 -180 -9 -209 38 -8 14 -6 22 10 39 42 42 145 41 205 -2z"/>
<path d="M835 2346 c-43 -43 -10 -85 65 -86 54 0 90 22 90 55 0 55 -109 77
-155 31z m121 -10 c42 -32 -25 -69 -92 -52 -29 8 -32 40 -6 55 25 15 75 13 98
-3z"/>
<path d="M615 2340 c-28 -11 -61 -50 -69 -80 -4 -17 0 -12 14 13 24 44 69 67
115 61 25 -4 26 -3 10 5 -25 12 -44 12 -70 1z"/>
<path d="M1066 2131 c20 -12 37 -34 44 -56 7 -20 14 -34 16 -32 8 8 -17 61
-38 85 -12 12 -29 22 -37 22 -9 0 -2 -8 15 -19z"/>
<path d="M621 2060 c18 -27 87 -86 93 -79 2 2 -22 27 -53 54 -33 30 -49 40
-40 25z"/>
<path d="M1318 1943 c6 -2 18 -2 25 0 6 3 1 5 -13 5 -14 0 -19 -2 -12 -5z"/>
<path d="M1368 1933 c7 -3 16 -2 19 1 4 3 -2 6 -13 5 -11 0 -14 -3 -6 -6z"/>
<path d="M1335 1904 c38 -8 84 -22 102 -29 19 -8 31 -10 28 -5 -8 13 -94 39
-150 45 -43 4 -41 3 20 -11z"/>
<path d="M653 1533 c9 -2 23 -2 30 0 6 3 -1 5 -18 5 -16 0 -22 -2 -12 -5z"/>
<path d="M738 1523 c12 -2 32 -2 45 0 12 2 2 4 -23 4 -25 0 -35 -2 -22 -4z"/>
<path d="M1123 1523 c9 -2 23 -2 30 0 6 3 -1 5 -18 5 -16 0 -22 -2 -12 -5z"/>
<path d="M897 1513 c18 -2 50 -2 70 0 21 2 7 4 -32 4 -38 0 -55 -2 -38 -4z"/>
<path d="M853 1423 c9 -2 23 -2 30 0 6 3 -1 5 -18 5 -16 0 -22 -2 -12 -5z"/>
<path d="M1480 1410 c-19 -11 -31 -19 -27 -20 11 0 67 29 67 35 0 7 -1 7 -40
-15z"/>
<path d="M478 1273 c7 -3 16 -2 19 1 4 3 -2 6 -13 5 -11 0 -14 -3 -6 -6z"/>
<path d="M518 1263 c7 -3 16 -2 19 1 4 3 -2 6 -13 5 -11 0 -14 -3 -6 -6z"/>
<path d="M1338 1263 c7 -3 16 -2 19 1 4 3 -2 6 -13 5 -11 0 -14 -3 -6 -6z"/>
<path d="M568 1253 c7 -3 16 -2 19 1 4 3 -2 6 -13 5 -11 0 -14 -3 -6 -6z"/>
<path d="M1298 1253 c7 -3 16 -2 19 1 4 3 -2 6 -13 5 -11 0 -14 -3 -6 -6z"/>
<path d="M1248 1243 c7 -3 16 -2 19 1 4 3 -2 6 -13 5 -11 0 -14 -3 -6 -6z"/>
<path d="M538 1163 c7 -3 16 -2 19 1 4 3 -2 6 -13 5 -11 0 -14 -3 -6 -6z"/>
<path d="M1318 1163 c7 -3 16 -2 19 1 4 3 -2 6 -13 5 -11 0 -14 -3 -6 -6z"/>
<path d="M588 1153 c6 -2 18 -2 25 0 6 3 1 5 -13 5 -14 0 -19 -2 -12 -5z"/>
<path d="M1268 1153 c6 -2 18 -2 25 0 6 3 1 5 -13 5 -14 0 -19 -2 -12 -5z"/>
<path d="M653 1143 c9 -2 23 -2 30 0 6 3 -1 5 -18 5 -16 0 -22 -2 -12 -5z"/>
<path d="M1203 1143 c9 -2 23 -2 30 0 6 3 -1 5 -18 5 -16 0 -22 -2 -12 -5z"/>
<path d="M733 1133 c9 -2 23 -2 30 0 6 3 -1 5 -18 5 -16 0 -22 -2 -12 -5z"/>
<path d="M1123 1133 c9 -2 25 -2 35 0 9 3 1 5 -18 5 -19 0 -27 -2 -17 -5z"/>
<path d="M868 1123 c12 -2 30 -2 40 0 9 3 -1 5 -23 4 -22 0 -30 -2 -17 -4z"/>
<path d="M973 1123 c15 -2 37 -2 50 0 12 2 0 4 -28 4 -27 0 -38 -2 -22 -4z"/>
<path d="M618 1053 c6 -2 18 -2 25 0 6 3 1 5 -13 5 -14 0 -19 -2 -12 -5z"/>
<path d="M1248 1053 c7 -3 16 -2 19 1 4 3 -2 6 -13 5 -11 0 -14 -3 -6 -6z"/>
<path d="M693 1043 c9 -2 23 -2 30 0 6 3 -1 5 -18 5 -16 0 -22 -2 -12 -5z"/>
<path d="M1178 1043 c6 -2 18 -2 25 0 6 3 1 5 -13 5 -14 0 -19 -2 -12 -5z"/>
<path d="M330 1030 c8 -5 20 -10 25 -10 6 0 3 5 -5 10 -8 5 -19 10 -25 10 -5
0 -3 -5 5 -10z"/>
<path d="M788 1033 c17 -2 47 -2 65 0 17 2 3 4 -33 4 -36 0 -50 -2 -32 -4z"/>
<path d="M1063 1033 c15 -2 37 -2 50 0 12 2 0 4 -28 4 -27 0 -38 -2 -22 -4z"/>
<path d="M1490 1030 c-9 -6 -10 -10 -3 -10 6 0 15 5 18 10 8 12 4 12 -15 0z"/>
<path d="M733 943 c9 -2 25 -2 35 0 9 3 1 5 -18 5 -19 0 -27 -2 -17 -5z"/>
<path d="M1143 943 c9 -2 23 -2 30 0 6 3 -1 5 -18 5 -16 0 -22 -2 -12 -5z"/>
<path d="M872 933 c37 -2 100 -2 140 0 40 1 10 3 -67 3 -77 0 -110 -1 -73 -3z"/>
<path d="M468 793 c7 -3 16 -2 19 1 4 3 -2 6 -13 5 -11 0 -14 -3 -6 -6z"/>
<path d="M548 773 c7 -3 16 -2 19 1 4 3 -2 6 -13 5 -11 0 -14 -3 -6 -6z"/>
<path d="M1328 683 c7 -3 16 -2 19 1 4 3 -2 6 -13 5 -11 0 -14 -3 -6 -6z"/>
<path d="M568 673 c7 -3 16 -2 19 1 4 3 -2 6 -13 5 -11 0 -14 -3 -6 -6z"/>
<path d="M618 663 c7 -3 16 -2 19 1 4 3 -2 6 -13 5 -11 0 -14 -3 -6 -6z"/>
<path d="M1178 653 c7 -3 16 -2 19 1 4 3 -2 6 -13 5 -11 0 -14 -3 -6 -6z"/>
<path d="M1088 643 c6 -2 18 -2 25 0 6 3 1 5 -13 5 -14 0 -19 -2 -12 -5z"/>
<path d="M598 573 c7 -3 16 -2 19 1 4 3 -2 6 -13 5 -11 0 -14 -3 -6 -6z"/>
<path d="M1268 573 c7 -3 16 -2 19 1 4 3 -2 6 -13 5 -11 0 -14 -3 -6 -6z"/>
<path d="M648 563 c6 -2 18 -2 25 0 6 3 1 5 -13 5 -14 0 -19 -2 -12 -5z"/>
<path d="M723 553 c9 -2 25 -2 35 0 9 3 1 5 -18 5 -19 0 -27 -2 -17 -5z"/>
<path d="M1138 553 c7 -3 16 -2 19 1 4 3 -2 6 -13 5 -11 0 -14 -3 -6 -6z"/>
<path d="M868 543 c28 -2 76 -2 105 0 28 2 5 3 -53 3 -58 0 -81 -1 -52 -3z"/>
<path d="M568 483 c7 -3 16 -2 19 1 4 3 -2 6 -13 5 -11 0 -14 -3 -6 -6z"/>
<path d="M618 473 c7 -3 16 -2 19 1 4 3 -2 6 -13 5 -11 0 -14 -3 -6 -6z"/>
<path d="M683 463 c9 -2 23 -2 30 0 6 3 -1 5 -18 5 -16 0 -22 -2 -12 -5z"/>
<path d="M1188 463 c7 -3 16 -2 19 1 4 3 -2 6 -13 5 -11 0 -14 -3 -6 -6z"/>
<path d="M768 453 c12 -2 30 -2 40 0 9 3 -1 5 -23 4 -22 0 -30 -2 -17 -4z"/>
<path d="M1103 453 c9 -2 25 -2 35 0 9 3 1 5 -18 5 -19 0 -27 -2 -17 -5z"/>
<path d="M908 443 c23 -2 59 -2 80 0 20 2 1 4 -43 4 -44 0 -61 -2 -37 -4z"/>
</g>
</svg>
