<?xml version="1.0" encoding="utf-8"?>
<!-- Generator: Adobe Illustrator 22.0.0, SVG Export Plug-In . SVG Version: 6.00 Build 0)  -->
<svg version="1.1" id="Слой_1" xmlns="http://www.w3.org/2000/svg" xmlns:xlink="http://www.w3.org/1999/xlink" x="0px" y="0px"
	 viewBox="0 0 304.3 354.2" style="enable-background:new 0 0 304.3 354.2;" xml:space="preserve">
<style type="text/css">
	.st0{fill:#8B7900;}
</style>
<g>
	<path class="st0" d="M136.9,322.5c-19.4,0.9-38.9-0.4-58-5.7c-4.1-1.1-8.3-2.8-11.8-5.1c-2.3-1.5-5.2-5-4.8-7.2
		c0.4-2.5,4-4.6,6.3-6.7c0.7-0.6,1.8-0.7,3.2-1.2c-9.5-10.9-15.8-23.3-19.4-36.9c-3.5-13.5-6-27.1-8.4-40.8
		c4.1,15.6,7.2,31.5,12.6,46.6c3.6,10.1,9.2,20.2,16.3,28.3c20.1,23,46.8,23,66.7-2.1c11.7-14.7,15.8-32.4,18.8-50.4
		c0.6-3.4,0.9-6.9,1.4-10.6c8.4-1.6,16.9-2.9,25.2-4.8c5.3-1.2,10.5-3.1,15.6-5.1c6.7-2.6,9.8-5.8,13.3-13.4c0,4.6,0,8.2,0,11.4
		c5.5-1.3,10.6-3.5,15.8-3.6c16.5-0.5,27.2,13.5,23,29.5c-1.1,4.1-2.7,8.2-4.7,12c-1.9,3.7-4.5,6.9-6.8,10.4
		c9.3,3.7,18.8,6.6,27.5,11.2c8,4.2,15.9,9.4,22.1,15.7c9.9,10,8.3,23.3-2.4,32.4c-10.2,8.6-22.7,12.4-35.3,15.5
		c-26.1,6.4-52.8,8.8-79.6,9.1c-19.1,0.2-38.3-0.5-57.4-1.1c-5.2-0.2-10.4-1.4-15.5-3c7.3,0.3,14.6,0.9,21.9,1
		c30.3,0.3,60.2-2.3,89.1-11.9c11.4-3.8,22.4-8.5,31.7-16.4c9.7-8.2,12.7-21.1,8-29.8c0,3.6,0.9,8.3-0.2,12.7
		c-2.5,10.4-10.9,16-19.5,21c-17,9.7-35.7,14.4-54.8,17.3c-35,5.3-70,5-104.8-2c-17-3.4-33.6-8.3-48.4-17.9
		c-7.5-4.9-14.2-10.7-16-20.1c-0.4-2.2-0.1-4.5,0.3-6.9c2.9,17.1,16.2,24.1,29.8,30.2c24.8,11.3,51.3,14.9,78.2,16.2
		c30,1.5,59.6-0.8,88.4-9.4c10.6-3.1,20.6-7.9,30.9-11.9c-0.2-0.4-0.4-0.9-0.5-1.3c-6.5,1.2-13,2.6-19.5,3.6
		c-15.6,2.4-31.2,1.9-46.8,0.4c-5.9-0.6-11.9,0.3-17.9-0.1c-8.1-0.5-16.4-0.8-24.2-2.7c-13.2-3.1-26.2-7.2-39.2-11.3
		c-3.2-1-6-3.5-9-5.3c-2-1.3-3.8-3.8-6.4-0.9c-2.5,2.8-2.7,6-0.2,8.6c1.9,2,4.4,3.9,7,4.6c10.1,2.5,20.3,4.9,30.6,6.4
		C118.5,322,127.9,322,136.9,322.5z M208.4,261.3c5.9,4.2,12.6,2.5,19.1,2.5c0.7,0,1.6-0.7,2-1.3c3.8-6.5,8.1-12.9,11.2-19.8
		c2-4.5,0.5-9.3-3.5-12.6c-3.5-2.9-9-2.9-13.6,0.1c-6,4-10,9.8-12,16.7C210.3,251.5,209.5,256.3,208.4,261.3z M212.1,216.4
		c-0.5,0-0.9,0-1.4-0.1c-1.1,7.6-1.8,15.2-3.3,22.7c-1.5,7.6-3.2,15.3-5.8,22.6c-2.7,7.3-6.3,14.3-10.3,20.9
		c-3.9,6.4-8.9,12.2-13.4,18.3C202.1,280.1,212.1,248,212.1,216.4z M201.5,284.3c20-4.4,41.4-26.4,41.3-42.8
		C236.2,263.2,220.5,275.2,201.5,284.3z M213.8,226.8c8.4-11.2,18.4-10.1,29.1-6.2c-6.8-4.7-13.9-6.3-21.6-2.8
		C217.8,219.3,213.8,220.7,213.8,226.8z"/>
	<path class="st0" d="M176.1,185.9c-7.8-1.1-15.6-2.6-23.4-3.4c-21.9-2.1-43.9-2-65.6,2.6c-10.4,2.2-12.6,5.6-12.7,16.4
		c0,2.6,0,5.3,0,8.5c41.2-10.9,81.6-11.5,121.5,2.8c0.1,0.7,0.2,1.5,0.3,2.2c-8.5,2-17,4.4-25.6,5.8c-25.5,4-51.1,4.6-76.6,0.9
		c-11.6-1.7-22.9-5.3-34.3-8.2c-1.7-0.4-3.3-1.6-4.8-2.5c-9.7-5.8-9.8-12.7,0-18.4c10.2-5.9,21.7-8.3,33.3-10
		c28.1-4.1,56.1-4,83.9,1.5c1.4,0.3,2.8,0.8,4.2,1.2C176.1,185.5,176.1,185.7,176.1,185.9z"/>
	<path class="st0" d="M152.5,5.7c5.1,23.2-1.1,43.6-15,62.2c-5.6,7.4-10.8,15.2-15.4,23.3c-6.4,11.2-8.7,23.6-8,36.5
		c-4.7-18.3-2.1-35.3,9-50.8c4.2-6,8.8-11.7,13.1-17.6c10.8-14.8,16.1-31.5,16.3-49.8C152.5,8.3,152.5,7,152.5,5.7z"/>
	<path class="st0" d="M123.8,167.2c-2.4-20.2,4.5-36.5,18.5-50.3c9.8-9.6,19-19.8,23.5-33c2.6-7.6,4.2-15.6,6.1-22.9
		c1.7,20.7-5.4,38.7-19.9,54.1c-9.1,9.7-18.6,19.3-23.2,32.2C126.6,153.5,125.5,160.3,123.8,167.2z"/>
</g>
</svg>
