<?xml version="1.0" standalone="no"?>
<!DOCTYPE svg PUBLIC "-//W3C//DTD SVG 20010904//EN"
 "http://www.w3.org/TR/2001/REC-SVG-20010904/DTD/svg10.dtd">
<svg version="1.0" xmlns="http://www.w3.org/2000/svg"
 width="1280.000000pt" height="988.000000pt" viewBox="0 0 1280.000000 988.000000"
 preserveAspectRatio="xMidYMid meet">
<metadata>
Created by potrace 1.15, written by Peter Selinger 2001-2017
</metadata>
<g transform="translate(0.000000,988.000000) scale(0.100000,-0.100000)"
fill="#000000" stroke="none">
<path d="M8255 9870 c-2058 -53 -3792 -330 -5234 -837 -1549 -543 -2606 -1340
-2917 -2201 -101 -277 -125 -577 -68 -846 37 -175 128 -389 238 -560 42 -65
155 -215 196 -260 5 -4 23 -1 42 8 l33 17 40 -48 c82 -99 258 -284 335 -354
44 -39 80 -75 80 -79 0 -3 -44 -36 -97 -72 -229 -155 -355 -302 -409 -475 -23
-73 -26 -95 -22 -195 5 -126 28 -206 94 -327 34 -62 165 -244 185 -257 5 -3
23 2 41 10 17 9 32 16 34 16 2 0 18 -21 35 -47 112 -164 333 -402 514 -554
362 -303 800 -558 1319 -769 155 -62 141 -48 172 -173 24 -99 79 -205 128
-248 24 -22 69 -77 100 -123 160 -240 425 -452 791 -631 279 -137 541 -229
816 -284 57 -12 113 -24 124 -26 13 -3 27 -20 38 -47 10 -24 36 -80 58 -125
61 -123 192 -249 360 -345 l45 -27 28 47 c27 44 27 47 10 57 -10 5 -40 30 -67
55 -83 75 -149 194 -162 294 l-7 45 184 -6 c454 -15 756 87 808 272 7 25 16
48 21 50 4 3 10 23 14 44 8 51 -25 104 -110 173 -122 99 -247 138 -443 138
-285 0 -524 -95 -639 -254 -21 -28 -40 -53 -44 -56 -3 -3 -9 -15 -13 -28 -6
-16 -13 -21 -29 -17 -410 90 -602 143 -823 226 -171 65 -445 202 -579 290
-138 91 -260 189 -246 199 9 5 3 23 -19 63 -35 64 -45 123 -35 202 5 47 9 55
23 50 56 -22 377 -114 542 -155 827 -209 1655 -298 2487 -270 833 29 1474 146
1928 353 517 236 702 543 537 892 -26 54 -51 130 -54 162 -1 7 -5 10 -10 7 -5
-3 -35 19 -67 48 -33 29 -112 84 -176 123 l-117 70 169 22 c1188 155 2154 495
2597 914 152 144 243 283 280 425 20 78 21 222 1 299 -21 82 -86 212 -146 292
-28 36 -56 82 -62 101 -14 40 -90 91 -281 188 -721 367 -2026 561 -3631 541
-679 -9 -1221 -40 -1885 -108 -1643 -168 -2933 -448 -3863 -838 -93 -39 -175
-71 -183 -71 -34 0 -698 346 -690 359 3 4 -6 30 -20 58 -46 98 -59 167 -58
318 1 109 6 157 23 219 279 1031 2236 2047 4651 2415 421 64 774 101 1285 133
256 16 1097 16 1360 0 754 -46 1407 -138 2050 -287 202 -46 566 -144 740 -199
l110 -34 22 42 c12 22 22 46 22 51 0 6 -60 48 -135 95 -585 368 -858 687 -756
885 93 183 481 325 1147 419 239 34 445 57 955 106 234 22 499 49 590 60 91
11 171 20 178 20 8 0 12 18 12 55 0 65 39 53 -325 95 -781 88 -1435 143 -2140
180 -593 30 -1499 44 -2030 30z m522 -4654 c782 -53 1336 -141 1747 -277 148
-49 368 -156 419 -204 l38 -36 -31 -39 c-66 -83 -197 -179 -350 -255 -616
-308 -1777 -487 -3672 -566 -318 -13 -1318 -7 -1578 10 -1179 77 -2098 249
-3025 568 -104 36 -198 67 -209 70 -26 8 40 32 254 92 1194 337 2948 581 4665
651 338 13 1471 5 1742 -14z m-7126 -979 c643 -407 1591 -764 2584 -972 243
-51 229 -45 165 -60 -541 -125 -1039 -314 -1328 -504 -88 -58 -211 -155 -244
-193 -17 -20 -19 -19 -130 17 -572 189 -1155 467 -1708 812 -81 51 -140 94
-140 103 0 8 -7 29 -16 45 -53 101 -70 302 -33 399 56 151 266 285 564 360
123 30 177 43 191 45 5 0 48 -23 95 -52z m5444 -1348 c312 -19 630 -63 845
-114 277 -67 499 -164 559 -246 l23 -31 -38 -40 c-210 -215 -672 -333 -1529
-390 -244 -16 -1197 -16 -1525 0 -809 40 -1448 122 -2023 258 l-109 26 49 28
c172 98 638 240 1083 330 792 159 1856 231 2665 179z m-1339 -1990 c57 -10
184 -55 194 -69 3 -3 16 -13 29 -22 l24 -17 -37 -15 c-115 -48 -329 -59 -593
-30 -82 9 -150 18 -152 20 -18 17 148 115 225 133 55 13 239 13 310 0z"/>
<path d="M5858 3873 c12 -2 30 -2 40 0 9 3 -1 5 -23 4 -22 0 -30 -2 -17 -4z"/>
<path d="M6603 3873 c9 -2 23 -2 30 0 6 3 -1 5 -18 5 -16 0 -22 -2 -12 -5z"/>
<path d="M5378 453 c18 -2 45 -2 60 0 15 2 0 4 -33 4 -33 0 -45 -2 -27 -4z"/>
</g>
</svg>
